<svg preserveAspectRatio="xMidYMid meet" width="175" height="76" overflow="hidden" style="display: block;" viewBox="0 0 175 76" fill="none" xmlns="http://www.w3.org/2000/svg">
<g id="Group" transform="scale(1, -1) translate(0, -76)">
<path id="Vector" d="M54.2373 75.6132C51.3017 74.6052 48.755 71.864 46.6505 67.4427C44.8997 63.7819 44.1393 60.8462 44.1216 57.6275C44.1039 54.7272 44.3161 54.232 46.2438 52.6757C48.2952 51.0133 48.8435 50.7304 50.1521 50.7304C51.1248 50.7304 51.337 50.8011 51.8322 51.2432C52.3981 51.7384 52.4158 51.8091 52.4335 53.1532C52.4512 54.7272 52.6457 55.2047 53.3885 55.5937C54.8386 56.3365 57.173 55.3285 57.6505 53.7368C57.9158 52.8526 57.7389 51.7561 57.12 50.5535C56.4126 49.1741 56.0766 48.9972 54.0605 48.8027C51.8499 48.5905 50.6296 48.0069 48.5075 46.1499C47.6409 45.4072 46.8097 44.7351 46.6329 44.6821C46.1377 44.4875 45.8017 45.0888 45.165 47.3348C43.9978 51.4554 43.0428 52.8526 41.3981 52.8526C38.9576 52.8526 37.5075 50.1114 36.5879 43.7978C36.2165 41.1981 35.9335 40.4023 35.3676 40.2431C34.8194 40.1016 33.776 40.7029 32.4496 41.8878C30.8757 43.285 30.0975 43.621 27.8692 43.8155C26.1184 43.957 26.0831 43.9747 25.4995 44.6113C24.3853 45.8316 24.8628 46.9104 26.8081 47.5647C28.2406 48.0422 29.4785 49.1564 29.8676 50.3413C30.0268 50.8542 30.3274 51.2786 30.7342 51.5792C31.0879 51.8445 31.5123 52.2159 31.6892 52.4104C33.2101 54.1259 33.2277 57.2561 31.7245 58.7594C31.0171 59.4845 30.8933 59.679 30.239 61.5006C28.8596 65.2675 26.6843 66.5585 21.3789 66.7707C17.1345 66.9299 14.4111 66.1694 12.5718 64.2948C11.493 63.1983 10.8741 61.925 10.4143 59.8205C10.1313 58.5295 9.98984 58.2111 9.5654 57.8574C8.38051 56.9378 7.83228 54.6034 8.38052 52.7641C8.71653 51.5792 9.90141 50.1998 10.5734 50.1998C10.821 50.1998 11.1394 49.9168 11.5284 49.3863C12.1474 48.502 13.067 47.9538 14.6763 47.4763C16.5509 46.9458 17.3291 45.4072 16.3387 44.2046C15.7728 43.5502 15.1715 43.3557 13.1908 43.2319C10.0606 43.0374 8.32746 41.6402 6.43518 37.7318C5.81621 36.4762 5.09113 34.7254 4.84354 33.8588C4.10078 31.4183 3.18117 29.3845 2.12008 27.8282C0.793712 25.8829 0.139372 24.415 0.0332633 23.1417C-0.108216 21.7269 0.192427 21.0725 1.11204 20.6481C2.75673 19.9053 4.96734 20.5066 5.97538 21.9745C6.50592 22.7349 7.05415 24.2912 7.05415 25.0694C7.05415 25.5469 7.30174 26.1658 8.82264 29.5083C9.77762 31.6305 10.2728 32.3379 10.768 32.3379C11.1394 32.3379 11.5638 31.8781 11.8291 31.1884C12.112 30.4456 12.059 25.9536 11.7406 23.2301C11.157 18.4375 11.104 17.0227 11.3339 12.4422C11.4577 10.0194 11.5461 6.71227 11.5107 5.10293C11.4754 2.34407 11.493 2.14953 11.8644 1.49518C12.448 0.50482 13.3853 0.0626937 14.9239 0.0626937C16.4271 0.0803787 17.1168 0.39871 17.8065 1.42444L18.284 2.16721L18.4255 8.97596C18.5493 14.476 18.62 15.8731 18.8323 16.1915C19.7342 17.5886 23.0236 17.5002 23.7663 16.0677C23.9078 15.8024 24.1908 14.4053 24.403 12.9551C24.739 10.8152 24.8097 9.54188 24.8274 6.25246C24.8274 2.46786 24.8451 2.13184 25.1988 1.56592C25.9416 0.274914 27.4802 -0.255637 29.2663 0.133434C30.4512 0.39871 31.1586 1.07074 31.4416 2.1849C31.6007 2.83925 31.583 3.38748 31.3531 4.97914L31.0525 6.95986L31.6184 11.947C32.3258 18.0661 32.3789 21.214 31.8483 24.2028C31.3885 26.7848 31.194 33.1161 31.5654 33.4167C31.7422 33.5582 32.1666 33.4874 33.1747 33.1514C35.6329 32.3379 37.2599 32.6209 38.6039 34.1064C39.5412 35.1498 39.8596 35.9633 40.4785 38.9521C41.2743 42.7367 41.7165 43.6917 41.9817 42.1001C42.247 40.5084 42.6361 39.3058 43.0605 38.7576C44.0686 37.4135 45.3242 37.3074 47.5525 38.3508C48.3837 38.7399 49.1795 39.0582 49.3386 39.0582C49.4801 39.0582 49.7984 38.846 50.046 38.5984C51.337 37.219 50.1168 32.1611 46.9335 25.7768C45.6425 23.2301 45.4126 22.452 45.3949 20.9311C45.3772 18.915 45.9078 18.4375 48.5782 17.96C50.329 17.6416 51.1956 17.0757 51.3547 16.1915C51.4608 15.6255 51.4962 6.14635 51.4078 3.29906C51.3547 1.99036 51.4078 1.68972 51.7261 1.26528C52.5219 0.186489 54.6618 -0.326377 56.1296 0.221859C57.792 0.858521 58.2341 2.0611 58.0573 5.59811C57.9689 7.24282 58.0219 8.3393 58.2341 9.7541C58.5348 11.7879 58.6055 15.1304 58.3579 16.4037C58.2695 16.8458 58.2341 17.2702 58.2695 17.3764C58.3579 17.6063 63.4688 17.5355 63.6987 17.3056C63.7872 17.2349 63.8756 16.3506 63.8933 15.3426C63.9286 14.3345 64.0878 12.5837 64.247 11.4696C64.4769 9.93095 64.5299 8.49846 64.4946 5.63348C64.4415 2.07879 64.4592 1.79583 64.7952 1.21222C65.3434 0.292599 66.1393 -0.0611017 67.5717 0.00963854C68.9158 0.0803787 69.5171 0.416395 70.1007 1.40676C70.4013 1.93731 70.4367 2.29101 70.4013 4.13026C70.3836 5.38589 70.4897 7.04829 70.6489 8.19782C70.9672 10.3023 70.9142 11.8233 70.4367 14.8828C70.136 16.8104 70.1891 17.3764 70.7196 17.6593C70.9142 17.7654 71.8161 17.9069 72.7357 17.9953C73.6553 18.0838 74.5572 18.2429 74.7341 18.3314C76.1312 19.0918 76.1666 20.6304 74.8579 23.5131C74.5219 24.2558 73.9913 25.7414 73.673 26.7848C73.337 27.8459 72.5412 30.1096 71.9045 31.8074C70.1714 36.4232 69.9946 37.7318 71.038 38.1563C71.9399 38.5277 73.2132 37.6965 74.4511 35.928C74.964 35.1852 77.0508 30.7993 77.9174 28.6241C78.165 27.9874 78.5717 27.2092 78.8193 26.8732C80.3402 24.8041 83.6296 25.9182 83.6296 28.5003C83.6296 29.243 83.3997 29.862 82.2148 32.3556C81.4367 33.9826 80.5524 36.0164 80.2518 36.883C79.1023 40.1193 77.6698 42.3653 75.2823 44.629C73.39 46.4329 71.7984 47.2641 68.8804 47.9715C65.3965 48.8204 64.9897 49.2448 64.9721 52.0037C64.9721 53.4715 65.0251 53.7722 65.3434 54.2143C66.5106 55.806 68.1907 55.9121 69.4994 54.4973C70.136 53.8252 70.2952 53.4539 70.4544 52.4104C70.6843 50.8365 71.2148 50.2175 72.7003 49.8284C74.2743 49.404 75.2646 50.3236 76.2196 53.0648C76.8563 54.904 76.8563 55.2931 76.2019 57.3269C75.7421 58.7771 75.6714 59.2546 75.6714 61.0231C75.6714 66.8238 73.4785 72.0055 70.0653 74.3045C67.7486 75.8608 65.3611 76.3029 62.0894 75.7547C60.2856 75.4541 60.1087 75.4541 58.8885 75.7193C57.1023 76.1261 55.6698 76.0907 54.2373 75.6132Z" fill="white"/>
<path id="Vector_2" d="M93.71 54.5328V49.3157H94.8595H96.009V51.3494V53.3832H97.8659H99.7228V54.2675V55.1517H97.8659H96.009V56.4781V57.8045H98.2196H100.43V58.7772V59.7498H97.0701H93.71V54.5328Z" fill="white"/>
<path id="Vector_3" d="M102.552 56.0008C102.552 51.7563 102.659 51.2965 103.843 50.2531C104.657 49.5457 105.559 49.2451 106.885 49.2451C108.212 49.2451 109.114 49.5457 109.927 50.2531C111.112 51.2965 111.218 51.7563 111.218 56.0008V59.75H110.069H108.919V56.1069V52.4637L108.318 51.8624C107.805 51.3496 107.593 51.2612 106.885 51.2612C106.178 51.2612 105.966 51.3496 105.453 51.8624L104.851 52.4637V56.1069V59.75H103.702H102.552V56.0008Z" fill="white"/>
<path id="Vector_4" d="M114.224 54.5328V49.3157H115.197H116.169L116.187 52.6405V55.9476L116.559 55.4701C116.771 55.2048 117.938 53.737 119.158 52.1984L121.386 49.4041L122.235 49.3511L123.067 49.298V54.5151V59.7499H122.094H121.121L121.086 56.4782L121.033 53.2064L118.787 56.0891C115.798 59.9091 115.957 59.7499 115.02 59.7499H114.224V54.5328Z" fill="white"/>
<path id="Vector_5" d="M126.073 54.5327V49.2803L128.956 49.351C132.157 49.4217 132.864 49.6163 133.996 50.7481C135.11 51.8446 135.358 52.552 135.358 54.5327C135.358 56.5134 135.092 57.2385 133.996 58.2819C132.847 59.3961 131.962 59.6437 128.867 59.7144L126.073 59.7852V54.5327ZM131.75 57.3977C133.395 56.3189 133.625 53.5247 132.21 52.0038C131.573 51.3317 130.795 51.0841 129.398 51.0841H128.372V54.4443V57.8045H129.769C130.901 57.8045 131.255 57.7337 131.75 57.3977Z" fill="white"/>
<path id="Vector_6" d="M140.327 59.6082C140.221 59.4314 136.331 49.4924 136.331 49.3863C136.331 49.2802 138.205 49.2979 138.523 49.4217C138.665 49.4747 138.966 50.0406 139.16 50.6596L139.549 51.8091L141.494 51.7561L143.44 51.703L143.794 50.7304C144.006 50.1998 144.236 49.6516 144.342 49.5455C144.536 49.2802 146.588 49.2271 146.588 49.4747C146.588 49.5631 145.863 51.4908 144.978 53.7722C144.094 56.0359 143.21 58.3172 143.015 58.8301L142.679 59.7497H141.548C140.929 59.7497 140.38 59.679 140.327 59.6082ZM142.237 55.2047L142.856 53.3831H141.548C140.822 53.3831 140.221 53.4538 140.221 53.5246C140.221 53.613 140.469 54.3381 140.752 55.1693C141.052 55.9828 141.335 56.761 141.388 56.9024C141.512 57.2561 141.548 57.1854 142.237 55.2047Z" fill="white"/>
<path id="Vector_7" d="M150.39 59.3256C148.568 58.459 147.596 56.8497 147.578 54.6214C147.543 51.2612 149.399 49.2628 152.6 49.2451C153.732 49.2274 154.086 49.3158 154.988 49.758C156.332 50.4477 156.491 50.6953 155.961 51.4027C155.483 52.057 155.076 52.1101 154.404 51.6149C153.113 50.6599 151.097 51.1905 150.354 52.676C149.842 53.6664 149.806 55.2757 150.284 56.3191C150.938 57.7516 152.636 58.2114 154.28 57.4156C155.2 56.9735 155.412 57.0442 155.978 57.9285L156.332 58.4944L155.642 58.9542C154.723 59.5555 153.98 59.75 152.512 59.75C151.575 59.75 151.062 59.6439 150.39 59.3256Z" fill="white"/>
<path id="Vector_8" d="M160.736 56.1244C160.736 51.3141 160.683 51.1726 158.702 51.0488L157.995 50.9958L157.942 50.1646L157.888 49.3511L158.843 49.2273C160.506 49.0151 161.938 49.6694 162.646 50.9781C162.893 51.4379 162.964 52.163 162.999 55.6469L163.07 59.7499H161.903H160.736V56.1244Z" fill="white"/>
<path id="Vector_9" d="M166.43 54.6567C165.334 51.8624 164.449 49.5103 164.449 49.4396C164.449 49.192 166.518 49.3158 166.731 49.5634C166.837 49.6872 167.084 50.2354 167.261 50.7483L167.58 51.7033L169.525 51.7563L171.47 51.8094L171.789 50.9605C172.354 49.4042 172.461 49.3158 173.663 49.3158C174.459 49.3158 174.724 49.3688 174.671 49.5457C174.636 49.6872 173.752 52.0216 172.673 54.7628L170.727 59.75H169.578H168.411L166.43 54.6567ZM170.338 55.1165L170.94 53.3833H169.578H168.199L168.853 55.2226C169.207 56.2483 169.543 57.0265 169.613 56.9557C169.684 56.885 170.002 56.0538 170.338 55.1165Z" fill="white"/>
<path id="Vector_10" d="M93.71 40.3846V35.1321L96.5042 35.1852C99.1215 35.2559 99.3337 35.2913 100.289 35.7511C102.075 36.6353 103.083 38.2977 103.083 40.3669C103.083 42.436 102.093 44.1338 100.359 45.0357C99.5106 45.4779 99.2807 45.4956 96.5926 45.5663L93.71 45.637V40.3846ZM99.2099 43.3733C100.519 42.6129 101.049 40.9328 100.536 39.1997C100.094 37.6788 99.3691 37.1659 97.3353 36.989L96.009 36.8829V40.3846V43.8862L97.3177 43.7978C98.1665 43.7447 98.8209 43.5856 99.2099 43.3733Z" fill="white"/>
<path id="Vector_11" d="M105.948 40.5261C104.852 37.7142 103.967 35.3798 103.967 35.309C103.967 35.0615 106.036 35.1499 106.249 35.4152C106.355 35.5389 106.602 36.0872 106.779 36.6001L107.097 37.555L109.061 37.6081L111.006 37.6612L111.395 36.6354C111.607 36.0695 111.855 35.5213 111.961 35.3975C112.155 35.1499 114.224 35.0615 114.224 35.2914C114.224 35.3621 113.34 37.6965 112.244 40.5084L110.263 45.6017H109.096H107.929L105.948 40.5261ZM109.839 41.0921L110.493 39.2351H109.096H107.699L108.353 41.0921C108.707 42.1178 109.043 42.949 109.096 42.949C109.149 42.949 109.485 42.1178 109.839 41.0921Z" fill="white"/>
<path id="Vector_12" d="M118.433 41.6226C118.38 37.0068 118.38 37.0245 116.842 37.0245C115.922 37.0245 115.922 37.0245 115.763 36.3524C115.498 35.2736 115.621 35.1675 117.178 35.1675C118.274 35.1675 118.681 35.2383 119.176 35.5389C120.591 36.4055 120.732 36.9714 120.75 41.6756L120.768 45.6017H119.636H118.486L118.433 41.6226Z" fill="white"/>
<path id="Vector_13" d="M123.774 40.3846V35.1675H127.152H130.512L130.459 36.1048L130.406 37.0245L128.248 37.0775L126.073 37.1306V38.3508V39.5888H127.753H129.433V40.4731V41.3573H127.753H126.073V42.5953V43.8332H128.284H130.494V44.7175V45.6017H127.134H123.774V40.3846Z" fill="white"/>
<path id="Vector_14" d="M132.97 40.3846V35.1675H133.943H134.916L134.951 38.5277L135.004 41.8879L136.419 39.182L137.834 36.4939H138.629H139.425L140.875 39.2351L142.343 41.9763V38.5808V35.1675H143.316H144.289V40.3846V45.6017H143.245C141.972 45.6017 142.096 45.7432 140.133 41.9409C139.354 40.4554 138.682 39.2351 138.629 39.2351C138.576 39.2351 137.869 40.5261 137.055 42.1178C136.242 43.6917 135.446 45.1242 135.305 45.3011C135.11 45.5133 134.774 45.6017 133.996 45.6017H132.97V40.3846Z" fill="white"/>
<path id="Vector_15" d="M146.234 45.5133C146.234 45.4602 147.065 44.0101 148.091 42.2769L149.947 39.129V37.1483V35.1675H151.097H152.247V37.1659V39.1467L154.103 42.3123C155.129 44.0454 155.96 45.4956 155.96 45.531C155.96 45.5663 155.447 45.6017 154.829 45.6017C154.05 45.6017 153.608 45.5133 153.414 45.3364C153.272 45.195 152.689 44.1692 152.14 43.0551L151.115 41.039L149.983 43.1789C149.346 44.3638 148.763 45.3895 148.639 45.4602C148.409 45.6194 146.234 45.6548 146.234 45.5133Z" fill="white"/>
<path id="Vector_16" d="M131.874 31.4006C130.423 30.9938 129.168 29.7736 128.637 28.288C128.301 27.2977 128.301 25.1931 128.655 24.1674C128.991 23.1417 129.964 22.0098 130.919 21.497C131.52 21.1786 131.927 21.1079 133.412 21.1079C135.304 21.1079 135.764 21.2494 136.755 22.169L137.267 22.6465L136.648 23.2655L136.012 23.8844L135.234 23.4246C133.624 22.4873 131.891 22.9471 131.06 24.5565C130.706 25.2285 130.653 25.5468 130.724 26.5372C130.812 28.0228 131.237 28.7655 132.263 29.2961C133.2 29.7736 134.261 29.7205 135.181 29.1546C135.888 28.7125 136.206 28.8186 136.702 29.6321C137.091 30.2511 137.091 30.2688 136.755 30.534C135.552 31.4537 133.412 31.825 131.874 31.4006Z" fill="white"/>
<path id="Vector_17" d="M147.649 31.4006C145.35 30.7463 143.935 28.8186 143.935 26.3427C143.935 24.7334 144.395 23.5485 145.438 22.5051C146.499 21.444 147.56 21.0195 149.24 21.0195C150.92 21.0195 151.982 21.4263 153.078 22.5227C154.228 23.69 154.634 24.8749 154.51 26.7495C154.316 29.5614 152.512 31.3653 149.665 31.5421C148.957 31.5952 148.109 31.5421 147.649 31.4006ZM150.355 29.4376C151.592 28.9247 152.353 27.4569 152.194 25.8829C151.999 23.9375 151.08 23.0533 149.24 23.0533C147.879 23.0533 147.171 23.4601 146.676 24.5035C145.297 27.4215 147.649 30.5694 150.355 29.4376Z" fill="white"/>
<path id="Vector_18" d="M93.71 26.2191V20.9843L96.4157 21.0728C99.3691 21.1612 100.289 21.3734 101.332 22.24C102.818 23.4779 103.437 25.8654 102.818 28.023C102.588 28.8365 102.322 29.2609 101.615 29.9683C100.359 31.224 99.5283 31.4539 96.2389 31.4539H93.71V26.2191ZM98.8916 29.4378C100.554 28.7481 101.244 26.3783 100.324 24.4506C99.8289 23.4249 99.1392 23.0712 97.4768 22.9827L96.009 22.9297V26.3075V29.6854H97.1585C97.7952 29.6854 98.5733 29.5793 98.8916 29.4378Z" fill="white"/>
<path id="Vector_19" d="M104.675 30.5694V29.6852H106.974C108.247 29.6852 109.273 29.6321 109.273 29.5791C109.273 29.526 108.159 27.8813 106.797 25.9536C104.604 22.8411 104.321 22.3636 104.321 21.7269V21.0195H108.3H112.279V21.9922V22.9472L109.821 23.0002L107.363 23.0533L109.909 26.661C111.943 29.5614 112.456 30.3926 112.456 30.8701V31.4537H108.565H104.675V30.5694Z" fill="white"/>
<path id="Vector_20" d="M114.578 26.2366V21.0195H115.727H116.877V26.2366V31.4537H115.727H114.578V26.2366Z" fill="white"/>
<path id="Vector_21" d="M119.884 26.2366V21.0195H123.244H126.604V21.9922V22.9649H124.393H122.183V24.2028V25.4408H123.951H125.72V26.325V27.2093H123.951H122.183V28.4472V29.6852H124.393H126.604V30.5694V31.4537H123.244H119.884V26.2366Z" fill="white"/>
<path id="Vector_22" d="M139.16 26.2366V21.0195H140.31H141.459V26.2366V31.4537H140.31H139.16V26.2366Z" fill="white"/>
<path id="Vector_23" d="M157.022 26.2366V21.0195H157.995H158.967V24.5212V28.0051L160.311 25.4408C161.956 22.3282 162.027 22.2221 162.84 22.2928C163.441 22.3459 163.53 22.4343 164.396 24.026C164.892 24.9456 165.546 26.1482 165.847 26.6787L166.377 27.6514L166.395 24.3443V21.0195H167.456H168.517V26.2366V31.4537H167.368C166.006 31.4537 166.289 31.772 164.237 27.8106L162.769 24.9456L161.072 28.1643L159.374 31.3653L158.189 31.4183L157.022 31.4714V26.2366Z" fill="white"/>
<path id="Vector_24" d="M95.2131 17.1642C93.9574 16.5629 93.3562 15.6256 93.3562 14.2816C93.3562 12.8667 94.1166 12.0179 96.0089 11.3812C97.4944 10.886 97.9542 10.5323 97.9542 9.93103C97.9542 8.81687 96.398 8.46317 95.0009 9.27668C94.0812 9.80723 93.7275 9.73649 93.2677 8.88761L92.9317 8.25095L93.4446 7.82651C94.2227 7.18985 95.7082 6.81846 96.8931 6.92457C98.1311 7.03068 98.8562 7.38438 99.4928 8.21558C99.8819 8.74613 99.988 9.08215 100.041 10.0371C100.129 11.9294 99.6697 12.4069 96.6632 13.5034C95.6021 13.8748 95.2838 14.423 95.7259 15.0951C95.9735 15.4664 96.1504 15.5372 96.8578 15.5372C97.3176 15.5195 97.8835 15.4134 98.1311 15.2719C98.8562 14.8652 99.3336 14.9359 99.6343 15.5372C100.041 16.333 99.9703 16.5629 99.1568 16.9697C98.078 17.5179 96.1681 17.6063 95.2131 17.1642Z" fill="white"/>
<path id="Vector_25" d="M102.552 12.1773V7.04859H103.702H104.851V12.1773V17.3059H103.702H102.552V12.1773Z" fill="white"/>
<path id="Vector_26" d="M108.388 14.9184V12.531L107.769 12.2303C107.168 11.9473 107.15 11.8943 107.15 10.9924C107.15 10.4795 107.186 10.055 107.239 10.055C107.31 10.055 107.575 10.1788 107.858 10.3203L108.388 10.6033V8.81709V7.04859H111.483H114.578V7.93284V8.81709H112.633H110.687V10.1965V11.5583L111.801 12.1596C112.403 12.4956 112.951 12.8493 113.022 12.9554C113.234 13.256 113.181 14.6532 112.986 14.6532C112.88 14.6532 112.332 14.4056 111.748 14.1226L110.687 13.5921V15.449V17.3059H109.538H108.388V14.9184Z" fill="white"/>
<path id="Vector_27" d="M116.523 12.177V7.04832H118.822C121.121 7.04832 121.121 7.04832 120.768 6.69462C120.308 6.23481 120.308 5.26213 120.768 4.83769C121.033 4.5901 121.316 4.53704 122.094 4.60778C123.244 4.69621 123.314 4.76695 123.173 5.36824C123.084 5.68657 122.943 5.81037 122.607 5.81037C122.377 5.81037 122.129 5.93416 122.059 6.07564C121.935 6.42934 122.483 7.04832 122.925 7.04832C123.19 7.04832 123.244 7.1898 123.244 7.93257V8.81682H121.121H118.999V10.0548V11.2927H120.679H122.359V12.177V13.0612H120.679H118.999V14.2992V15.5371H121.121H123.244V16.4214V17.3057H119.883H116.523V12.177Z" fill="white"/>
</g>
</svg>
