<svg preserveAspectRatio="none" width="100%" height="100%" overflow="visible" style="display: block;" viewBox="0 0 177 77" fill="none" xmlns="http://www.w3.org/2000/svg">
<g id="Group">
<path id="Vector" d="M54.9584 76.6083C51.9837 75.587 49.4032 72.8098 47.2707 68.3303C45.4967 64.6214 44.7261 61.647 44.7082 58.386C44.6903 55.4475 44.9053 54.9458 46.8586 53.369C48.9373 51.6847 49.4928 51.3981 50.8189 51.3981C51.8045 51.3981 52.0195 51.4697 52.5213 51.9177C53.0947 52.4194 53.1127 52.491 53.1306 53.8528C53.1485 55.4475 53.3456 55.9313 54.0983 56.3254C55.5677 57.078 57.9331 56.0567 58.417 54.4441C58.6858 53.5482 58.5066 52.4373 57.8794 51.2189C57.1626 49.8213 56.8221 49.6421 54.7792 49.445C52.5392 49.23 51.3027 48.6387 49.1523 46.7574C48.2743 46.0048 47.432 45.3239 47.2528 45.2702C46.7511 45.0731 46.4106 45.6823 45.7655 47.9579C44.5828 52.1327 43.6151 53.5482 41.9485 53.5482C39.4756 53.5482 38.0061 50.7709 37.0743 44.3743C36.698 41.7404 36.4112 40.9341 35.8378 40.7728C35.2823 40.6295 34.225 41.2387 32.881 42.4392C31.2861 43.8547 30.4977 44.1951 28.2397 44.3922C26.4657 44.5356 26.4298 44.5535 25.8385 45.1985C24.7095 46.4348 25.1933 47.5278 27.1645 48.1908C28.6161 48.6746 29.8705 49.8034 30.2647 51.0039C30.426 51.5235 30.7306 51.9535 31.1428 52.2581C31.5012 52.5269 31.9313 52.9032 32.1105 53.1003C33.6516 54.8383 33.6695 58.0097 32.1463 59.5327C31.4295 60.2674 31.3041 60.4644 30.641 62.31C29.2433 66.1265 27.0391 67.4344 21.6631 67.6495C17.3623 67.8107 14.6026 67.0403 12.739 65.141C11.6458 64.0301 11.0186 62.74 10.5527 60.6078C10.266 59.2998 10.1226 58.9773 9.69257 58.6189C8.49193 57.6872 7.93641 55.3221 8.49193 53.4586C8.83241 52.2581 10.033 50.8605 10.714 50.8605C10.9649 50.8605 11.2874 50.5738 11.6817 50.0363C12.3089 49.1404 13.2407 48.585 14.8714 48.1012C16.771 47.5637 17.5594 46.0048 16.5559 44.7864C15.9825 44.1235 15.3732 43.9264 13.3662 43.8009C10.1943 43.6038 8.43817 42.1883 6.52073 38.2285C5.89354 36.9564 5.15882 35.1825 4.90794 34.3045C4.1553 31.8319 3.22346 29.7713 2.14826 28.1946C0.804264 26.2236 0.141225 24.7365 0.0337055 23.4464C-0.109654 22.013 0.194985 21.35 1.12682 20.92C2.79338 20.1674 5.03338 20.7766 6.05482 22.2638C6.59241 23.0343 7.14793 24.611 7.14793 25.3994C7.14793 25.8832 7.39881 26.5103 8.93993 29.8968C9.90761 32.0469 10.4094 32.7636 10.9111 32.7636C11.2874 32.7636 11.7175 32.2977 11.9863 31.599C12.273 30.8464 12.2193 26.2953 11.8967 23.536C11.3054 18.6803 11.2516 17.2468 11.4846 12.6061C11.61 10.1514 11.6996 6.80079 11.6638 5.17028C11.6279 2.37511 11.6458 2.17801 12.0222 1.51505C12.6135 0.511661 13.5633 0.063717 15.1223 0.063717C16.6455 0.0816347 17.3444 0.404154 18.0433 1.44338L18.5271 2.19593L18.6705 9.09426C18.7959 14.6667 18.8676 16.0822 19.0826 16.4047C19.9966 17.8202 23.3297 17.7306 24.0823 16.2793C24.2257 16.0105 24.5124 14.595 24.7274 13.1258C25.0679 10.9577 25.1396 9.66763 25.1575 6.33493C25.1575 2.50053 25.1754 2.16009 25.5338 1.58673C26.2865 0.27873 27.8455 -0.258803 29.6554 0.135388C30.8561 0.404154 31.5729 1.08503 31.8596 2.21385C32.0209 2.8768 32.0029 3.43225 31.77 5.04485L31.4653 7.05164L32.0388 12.1044C32.7556 18.304 32.8093 21.4933 32.2717 24.5214C31.8058 27.1374 31.6087 33.552 31.985 33.8566C32.1642 33.9999 32.5943 33.9283 33.6157 33.5878C36.1066 32.7636 37.7552 33.0503 39.1172 34.5554C40.0669 35.6125 40.3895 36.4367 41.0167 39.4648C41.8231 43.2992 42.2711 44.2668 42.5399 42.6542C42.8087 41.0416 43.2029 39.8232 43.633 39.2677C44.6544 37.906 45.9267 37.7985 48.1847 38.8556C49.0269 39.2498 49.8333 39.5724 49.9946 39.5724C50.1379 39.5724 50.4605 39.3573 50.7114 39.1065C52.0195 37.7089 50.7831 32.5844 47.5575 26.1161C46.2493 23.536 46.0163 22.7476 45.9984 21.2067C45.9805 19.164 46.5181 18.6803 49.224 18.1965C50.9981 17.874 51.8762 17.3006 52.0375 16.4047C52.145 15.8313 52.1808 6.22742 52.0912 3.34267C52.0375 2.01675 52.0912 1.71215 52.4138 1.28212C53.2202 0.189141 55.3885 -0.330473 56.8759 0.224977C58.5603 0.870016 59.0083 2.08842 58.8291 5.67197C58.7395 7.33832 58.7933 8.44922 59.0083 9.88264C59.313 11.9432 59.3846 15.3296 59.1338 16.6197C59.0442 17.0677 59.0083 17.4977 59.0442 17.6052C59.1338 17.8381 64.3126 17.7665 64.5456 17.5335C64.6352 17.4619 64.7248 16.566 64.7427 15.5447C64.7786 14.5233 64.9398 12.7495 65.1011 11.6207C65.3341 10.0618 65.3878 8.61048 65.352 5.70781C65.2982 2.10634 65.3162 1.81966 65.6566 1.22837C66.2122 0.296648 67.0186 -0.0617073 68.4701 0.00996373C69.832 0.0816347 70.4413 0.422072 71.0326 1.42547C71.3373 1.963 71.3731 2.32135 71.3373 4.1848C71.3193 5.45696 71.4269 7.14123 71.5881 8.30588C71.9107 10.4381 71.8569 11.979 71.3731 15.0788C71.0685 17.0318 71.1222 17.6052 71.6598 17.8919C71.8569 17.9994 72.7709 18.1427 73.7027 18.2323C74.6345 18.3219 75.5485 18.4832 75.7277 18.5728C77.1433 19.3432 77.1792 20.9021 75.8531 23.8227C75.5126 24.5752 74.975 26.0803 74.6525 27.1374C74.312 28.2125 73.5056 30.506 72.8605 32.2261C71.1043 36.9026 70.9251 38.2285 71.9824 38.6585C72.8963 39.0348 74.1865 38.1927 75.4409 36.4009C75.9606 35.6484 78.0752 31.2048 78.9533 29.0009C79.2041 28.3558 79.6163 27.5675 79.8672 27.227C81.4083 25.1306 84.7414 26.2595 84.7414 28.8755C84.7414 29.628 84.5084 30.2551 83.3078 32.7815C82.5193 34.43 81.6233 36.4905 81.3187 37.3685C80.1539 40.6474 78.7024 42.923 76.2832 45.2164C74.3657 47.0441 72.7529 47.8862 69.7962 48.6029C66.2659 49.4629 65.8538 49.893 65.8358 52.6881C65.8358 54.1753 65.8896 54.4799 66.2122 54.9279C67.3949 56.5405 69.0973 56.648 70.4233 55.2145C71.0685 54.5337 71.2297 54.1574 71.391 53.1003C71.624 51.5056 72.1616 50.8785 73.6669 50.4843C75.2617 50.0542 76.2653 50.986 77.2329 53.7632C77.8781 55.6267 77.8781 56.0208 77.215 58.0814C76.7491 59.5506 76.6774 60.0344 76.6774 61.8262C76.6774 67.7032 74.4553 72.9531 70.9968 75.2824C68.6493 76.8592 66.2301 77.3071 62.9149 76.7517C61.087 76.4471 60.9078 76.4471 59.6714 76.7158C57.8615 77.128 56.4099 77.0921 54.9584 76.6083Z" fill="var(--fill-0, #E83F4B)"/>
<path id="Vector_2" d="M94.9558 55.2505V49.9647H96.1206H97.2854V52.0253V54.0858H99.167H101.049V54.9817V55.8776H99.167H97.2854V57.2214V58.5653H99.5254H101.765V59.5507V60.5362H98.3606H94.9558V55.2505Z" fill="var(--fill-0, #E83F4B)"/>
<path id="Vector_3" d="M103.916 56.7381C103.916 52.4379 104.024 51.972 105.224 50.9149C106.048 50.1982 106.962 49.8936 108.306 49.8936C109.65 49.8936 110.564 50.1982 111.389 50.9149C112.589 51.972 112.697 52.4379 112.697 56.7381V60.5367H111.532H110.367V56.8456V53.1546L109.758 52.5454C109.238 52.0258 109.023 51.9362 108.306 51.9362C107.59 51.9362 107.375 52.0258 106.855 52.5454L106.246 53.1546V56.8456V60.5367H105.081H103.916V56.7381Z" fill="var(--fill-0, #E83F4B)"/>
<path id="Vector_4" d="M115.743 55.2509V49.9652H116.728H117.714L117.732 53.3337V56.6843L118.108 56.2006C118.323 55.9318 119.506 54.4446 120.742 52.8858L123 50.0548L123.861 50.001L124.703 49.9473V55.233V60.5367H123.717H122.732L122.696 57.2219L122.642 53.9071L120.366 56.8277C117.338 60.6979 117.499 60.5367 116.549 60.5367H115.743V55.2509Z" fill="var(--fill-0, #E83F4B)"/>
<path id="Vector_5" d="M127.749 55.2505V49.9289L130.67 50.0005C133.914 50.0722 134.631 50.2693 135.778 51.4161C136.906 52.527 137.157 53.2437 137.157 55.2505C137.157 57.2572 136.889 57.9919 135.778 59.049C134.613 60.1778 133.717 60.4287 130.581 60.5004L127.749 60.572V55.2505ZM133.502 58.1531C135.168 57.0601 135.401 54.2291 133.968 52.6882C133.322 52.0073 132.534 51.7565 131.118 51.7565H130.079V55.1609V58.5652H131.495C132.642 58.5652 133 58.4936 133.502 58.1531Z" fill="var(--fill-0, #E83F4B)"/>
<path id="Vector_6" d="M142.193 60.3927C142.086 60.2136 138.143 50.1438 138.143 50.0363C138.143 49.9288 140.043 49.9467 140.365 50.0721C140.509 50.1259 140.813 50.6992 141.01 51.3264L141.405 52.491L143.376 52.4373L145.347 52.3835L145.705 51.398C145.92 50.8605 146.153 50.3051 146.261 50.1975C146.458 49.9288 148.537 49.875 148.537 50.1259C148.537 50.2155 147.802 52.1685 146.906 54.4799C146.01 56.7734 145.114 59.0848 144.917 59.6044L144.576 60.5361H143.43C142.802 60.5361 142.247 60.4644 142.193 60.3927ZM144.128 55.9312L144.756 54.0857H143.43C142.695 54.0857 142.086 54.1574 142.086 54.229C142.086 54.3186 142.336 55.0533 142.623 55.8954C142.928 56.7196 143.214 57.508 143.268 57.6513C143.394 58.0097 143.43 57.938 144.128 55.9312Z" fill="var(--fill-0, #E83F4B)"/>
<path id="Vector_7" d="M152.389 60.1068C150.543 59.2289 149.558 57.5983 149.54 55.3407C149.504 51.9363 151.386 49.9116 154.629 49.8937C155.776 49.8758 156.134 49.9654 157.048 50.4133C158.41 51.1121 158.572 51.363 158.034 52.0797C157.55 52.7426 157.138 52.7964 156.457 52.2947C155.149 51.3271 153.106 51.8647 152.353 53.3698C151.834 54.3732 151.798 56.0037 152.282 57.0608C152.945 58.5122 154.665 58.978 156.332 58.1717C157.263 57.7238 157.478 57.7954 158.052 58.6913L158.41 59.2647L157.711 59.7306C156.78 60.3398 156.027 60.5369 154.54 60.5369C153.59 60.5369 153.07 60.4294 152.389 60.1068Z" fill="var(--fill-0, #E83F4B)"/>
<path id="Vector_8" d="M162.873 56.8628C162.873 51.9892 162.819 51.8458 160.812 51.7204L160.095 51.6666L160.041 50.8245L159.988 50.0003L160.955 49.8749C162.64 49.6598 164.091 50.3228 164.808 51.6487C165.059 52.1146 165.131 52.8492 165.166 56.379L165.238 60.5359H164.055H162.873V56.8628Z" fill="var(--fill-0, #E83F4B)"/>
<path id="Vector_9" d="M168.643 55.3756C167.531 52.5446 166.635 50.1615 166.635 50.0899C166.635 49.839 168.732 49.9644 168.947 50.2153C169.055 50.3407 169.306 50.8962 169.485 51.4158L169.807 52.3833L171.779 52.4371L173.75 52.4908L174.072 51.6308C174.646 50.054 174.753 49.9644 175.972 49.9644C176.778 49.9644 177.047 50.0182 176.993 50.1974C176.957 50.3407 176.061 52.7059 174.968 55.4831L172.997 60.5359H171.832H170.65L168.643 55.3756ZM172.603 55.8415L173.212 54.0855H171.832H170.435L171.098 55.949C171.456 56.9882 171.796 57.7766 171.868 57.7049C171.94 57.6332 172.262 56.7911 172.603 55.8415Z" fill="var(--fill-0, #E83F4B)"/>
<path id="Vector_10" d="M94.9558 40.9161V35.5946L97.7872 35.6483C100.439 35.72 100.654 35.7558 101.622 36.2217C103.432 37.1176 104.453 38.8018 104.453 40.8982C104.453 42.9946 103.45 44.7147 101.694 45.6285C100.834 46.0764 100.601 46.0944 97.8768 46.166L94.9558 46.2377V40.9161ZM100.529 43.9442C101.855 43.1738 102.393 41.4716 101.873 39.7156C101.425 38.1747 100.69 37.6551 98.6294 37.4759L97.2854 37.3684V40.9161V44.4639L98.6115 44.3743C99.4717 44.3205 100.135 44.1592 100.529 43.9442Z" fill="var(--fill-0, #E83F4B)"/>
<path id="Vector_11" d="M107.357 41.0596C106.246 38.2106 105.35 35.8455 105.35 35.7738C105.35 35.523 107.446 35.6126 107.661 35.8813C107.769 36.0068 108.02 36.5622 108.199 37.0818L108.521 38.0494L110.511 38.1031L112.482 38.1569L112.876 37.1177C113.091 36.5443 113.342 35.9888 113.449 35.8634C113.647 35.6126 115.743 35.523 115.743 35.7559C115.743 35.8276 114.847 38.1927 113.736 41.0416L111.729 46.202H110.546H109.364L107.357 41.0596ZM111.299 41.6329L111.962 39.7516H110.546H109.131L109.794 41.6329C110.152 42.6722 110.493 43.5143 110.546 43.5143C110.6 43.5143 110.941 42.6722 111.299 41.6329Z" fill="var(--fill-0, #E83F4B)"/>
<path id="Vector_12" d="M120.008 42.1708C119.954 37.4943 119.954 37.5122 118.395 37.5122C117.463 37.5122 117.463 37.5122 117.302 36.8313C117.033 35.7384 117.158 35.6309 118.735 35.6309C119.846 35.6309 120.259 35.7025 120.76 36.0071C122.194 36.8851 122.337 37.4585 122.355 42.2246L122.373 46.2023H121.226H120.061L120.008 42.1708Z" fill="var(--fill-0, #E83F4B)"/>
<path id="Vector_13" d="M125.42 40.9166V35.6309H128.842H132.247L132.193 36.5805L132.14 37.5122L129.953 37.566L127.749 37.6197V38.8561V40.1103H129.452H131.154V41.0062V41.9021H129.452H127.749V43.1563V44.4106H129.989H132.229V45.3064V46.2023H128.824H125.42V40.9166Z" fill="var(--fill-0, #E83F4B)"/>
<path id="Vector_14" d="M134.738 40.9166V35.6309H135.724H136.709L136.745 39.0352L136.799 42.4396L138.232 39.6982L139.666 36.9747H140.472H141.279L142.748 39.7519L144.236 42.5292V39.089V35.6309H145.221H146.207V40.9166V46.2023H145.15C143.859 46.2023 143.985 46.3457 141.996 42.4934C141.207 40.9883 140.526 39.7519 140.472 39.7519C140.419 39.7519 139.702 41.0599 138.878 42.6725C138.053 44.2672 137.247 45.7186 137.103 45.8977C136.906 46.1127 136.566 46.2023 135.777 46.2023H134.738V40.9166Z" fill="var(--fill-0, #E83F4B)"/>
<path id="Vector_15" d="M148.178 46.1127C148.178 46.059 149.02 44.5897 150.059 42.8338L151.941 39.6444V37.6376V35.6309H153.106H154.271V37.6556V39.6624L156.152 42.8696C157.191 44.6256 158.034 46.0948 158.034 46.1307C158.034 46.1665 157.514 46.2023 156.887 46.2023C156.098 46.2023 155.65 46.1127 155.453 45.9336C155.31 45.7902 154.719 44.751 154.163 43.6222L153.124 41.5796L151.977 43.7476C151.332 44.9481 150.74 45.9873 150.615 46.059C150.382 46.2202 148.178 46.2561 148.178 46.1127Z" fill="var(--fill-0, #E83F4B)"/>
<path id="Vector_16" d="M133.627 31.814C132.157 31.4018 130.885 30.1655 130.347 28.6604C130.007 27.657 130.007 25.5248 130.365 24.4856C130.706 23.4464 131.691 22.2996 132.659 21.78C133.268 21.4575 133.681 21.3858 135.186 21.3858C137.103 21.3858 137.569 21.5292 138.573 22.4609L139.092 22.9447L138.465 23.5718L137.82 24.1989L137.032 23.733C135.401 22.7834 133.645 23.2493 132.802 24.8798C132.444 25.5607 132.39 25.8832 132.462 26.8866C132.552 28.3917 132.982 29.1442 134.021 29.6817C134.971 30.1655 136.046 30.1118 136.978 29.5384C137.695 29.0905 138.017 29.198 138.519 30.0222C138.913 30.6493 138.913 30.6672 138.573 30.936C137.354 31.8677 135.186 32.244 133.627 31.814Z" fill="var(--fill-0, #E83F4B)"/>
<path id="Vector_17" d="M149.612 31.8136C147.282 31.1507 145.848 29.1976 145.848 26.6891C145.848 25.0586 146.314 23.8581 147.372 22.801C148.447 21.7259 149.522 21.2959 151.224 21.2959C152.927 21.2959 154.002 21.708 155.113 22.8189C156.278 24.0015 156.69 25.202 156.565 27.1013C156.367 29.9502 154.54 31.7778 151.654 31.957C150.938 32.0107 150.078 31.957 149.612 31.8136ZM152.353 29.8247C153.608 29.3051 154.378 27.818 154.217 26.2233C154.02 24.2523 153.088 23.3564 151.224 23.3564C149.845 23.3564 149.128 23.7685 148.626 24.8257C147.228 27.7821 149.612 30.9715 152.353 29.8247Z" fill="var(--fill-0, #E83F4B)"/>
<path id="Vector_18" d="M94.9558 26.5643V21.2606L97.6976 21.3502C100.69 21.4398 101.622 21.6548 102.679 22.5328C104.185 23.7871 104.812 26.2059 104.185 28.3919C103.952 29.2161 103.683 29.6462 102.966 30.3629C101.694 31.635 100.851 31.868 97.5184 31.868H94.9558V26.5643ZM100.206 29.8253C101.891 29.1265 102.59 26.7256 101.658 24.7725C101.156 23.7333 100.457 23.3749 98.7728 23.2854L97.2854 23.2316V26.6539V30.0762H98.4502C99.0953 30.0762 99.8838 29.9687 100.206 29.8253Z" fill="var(--fill-0, #E83F4B)"/>
<path id="Vector_19" d="M106.066 30.9715V30.0756H108.396C109.686 30.0756 110.725 30.0218 110.725 29.9681C110.725 29.9143 109.597 28.248 108.217 26.295C105.995 23.1414 105.708 22.6576 105.708 22.0126V21.2959H109.74H113.772V22.2814V23.2489L111.281 23.3027L108.79 23.3564L111.371 27.0117C113.431 29.9502 113.951 30.7923 113.951 31.2761V31.8674H110.009H106.066V30.9715Z" fill="var(--fill-0, #E83F4B)"/>
<path id="Vector_20" d="M116.101 26.5816V21.2959H117.266H118.431V26.5816V31.8674H117.266H116.101V26.5816Z" fill="var(--fill-0, #E83F4B)"/>
<path id="Vector_21" d="M121.477 26.5816V21.2959H124.882H128.287V22.2814V23.2669H126.047H123.807V24.5211V25.7753H125.599H127.391V26.6712V27.5671H125.599H123.807V28.8214V30.0756H126.047H128.287V30.9715V31.8674H124.882H121.477V26.5816Z" fill="var(--fill-0, #E83F4B)"/>
<path id="Vector_22" d="M141.01 26.5816V21.2959H142.175H143.34V26.5816V31.8674H142.175H141.01V26.5816Z" fill="var(--fill-0, #E83F4B)"/>
<path id="Vector_23" d="M159.109 26.5816V21.2959H160.095H161.081V24.8436V28.3734L162.442 25.7753C164.109 22.6218 164.181 22.5143 165.005 22.586C165.614 22.6397 165.704 22.7293 166.582 24.3419C167.084 25.2736 167.747 26.492 168.051 27.0296L168.589 28.0151L168.607 24.6644V21.2959H169.682H170.757V26.5816V31.8674H169.593C168.213 31.8674 168.499 32.1899 166.421 28.1763L164.933 25.2736L163.213 28.5347L161.493 31.7778L160.292 31.8315L159.109 31.8853V26.5816Z" fill="var(--fill-0, #E83F4B)"/>
<path id="Vector_24" d="M96.4788 17.3906C95.2065 16.7814 94.5972 15.8318 94.5972 14.4701C94.5972 13.0366 95.3678 12.1766 97.2852 11.5315C98.7905 11.0298 99.2564 10.6715 99.2564 10.0623C99.2564 8.93347 97.6794 8.57512 96.2638 9.39933C95.3319 9.93686 94.9735 9.86519 94.5076 9.00514L94.1671 8.3601L94.6868 7.93008C95.4753 7.28504 96.9805 6.90876 98.1812 7.01627C99.4356 7.12378 100.17 7.48213 100.815 8.32427C101.21 8.8618 101.317 9.20224 101.371 10.1698C101.461 12.087 100.995 12.5708 97.9482 13.6817C96.873 14.0579 96.5505 14.6134 96.9985 15.2943C97.2493 15.6705 97.4285 15.7422 98.1453 15.7422C98.6113 15.7243 99.1847 15.6168 99.4356 15.4734C100.17 15.0613 100.654 15.133 100.959 15.7422C101.371 16.5485 101.299 16.7814 100.475 17.1936C99.3818 17.749 97.4465 17.8386 96.4788 17.3906Z" fill="var(--fill-0, #E83F4B)"/>
<path id="Vector_25" d="M103.916 12.3377V7.14151H105.081H106.246V12.3377V17.5338H105.081H103.916V12.3377Z" fill="var(--fill-0, #E83F4B)"/>
<path id="Vector_26" d="M109.829 15.1149V12.696L109.202 12.3914C108.593 12.1047 108.575 12.051 108.575 11.1372C108.575 10.6176 108.611 10.1875 108.665 10.1875C108.736 10.1875 109.005 10.313 109.292 10.4563L109.829 10.743V8.93329V7.14151H112.965H116.101V8.0374V8.93329H114.13H112.159V10.3309V11.7105L113.288 12.3197C113.897 12.6602 114.453 13.0185 114.524 13.126C114.74 13.4306 114.686 14.8461 114.489 14.8461C114.381 14.8461 113.826 14.5953 113.234 14.3086L112.159 13.7711V15.6524V17.5338H110.994H109.829V15.1149Z" fill="var(--fill-0, #E83F4B)"/>
<path id="Vector_27" d="M118.072 12.3377V7.14152H120.402C122.732 7.14152 122.732 7.14152 122.373 6.78316C121.907 6.3173 121.907 5.33183 122.373 4.9018C122.642 4.65095 122.929 4.5972 123.717 4.66887C124.882 4.75846 124.954 4.83013 124.81 5.43933C124.721 5.76185 124.577 5.88728 124.237 5.88728C124.004 5.88728 123.753 6.0127 123.681 6.15604C123.556 6.5144 124.111 7.14152 124.559 7.14152C124.828 7.14152 124.882 7.28486 124.882 8.03741V8.93329H122.732H120.581V10.1875V11.4418H122.284H123.986V12.3377V13.2336H122.284H120.581V14.4878V15.742H122.732H124.882V16.6379V17.5338H121.477H118.072V12.3377Z" fill="var(--fill-0, #E83F4B)"/>
</g>
</svg>
