<svg preserveAspectRatio="xMidYMid meet" width="100%" height="100%" overflow="hidden" style="display: block;" viewBox="0 0 581 267" fill="none" xmlns="http://www.w3.org/2000/svg">
<g id="Warstwa_1" clip-path="url(#clip0_0_4)">
<path id="Vector" d="M98.1404 0.20503C109.864 -0.20503 114.702 4.6388 114.702 15.9667L117.518 68.1468C117.927 73.8107 115.495 77.0399 109.838 77.0399H87.6199C82.3724 77.0399 80.7598 74.1951 80.7598 69.3513L80.3502 40.2371C80.3502 38.2124 79.5311 36.5978 76.7154 36.5978L44.3859 38.6225C41.5702 38.6225 40.7511 39.4426 40.3415 42.2618C38.3193 96.8509 36.7067 186.218 36.7067 206.055C36.7067 208.49 37.9097 210.514 40.7511 210.514H76.7154C79.9407 210.514 81.1693 208.9 81.1693 205.67L81.9885 146.212C81.9885 144.597 81.1694 142.573 78.7632 142.573H60.9986C58.1829 142.573 56.9542 141.752 56.9542 138.933L57.3638 118.302C57.3638 113.458 59.386 111.434 63.8399 111.434H106.255C114.728 111.434 118.362 115.867 118.362 123.556L117.159 227.891C117.159 240.833 111.912 247.317 98.5756 247.317H19.4028C6.47614 247.317 0 240.449 0 228.301L4.83791 22.8352C5.24747 7.0479 10.9045 3.40862 23.8312 3.02419L98.1404 0.20503Z" fill="white"/>
<path id="Vector_2" d="M205.445 0.563832C214.737 -0.256287 216.349 3.38299 217.578 10.2515L241.819 183.758C242.228 188.217 240.616 189.832 236.162 190.626L217.578 192.651C212.33 193.471 210.308 190.626 209.899 186.577L204.651 137.652C204.242 134.833 203.448 133.603 201.016 133.603H176.776C174.753 133.603 173.141 134.807 173.141 136.832L169.916 175.249C169.506 181.323 166.281 183.348 162.236 182.528L144.062 180.913C139.224 180.093 137.202 178.068 137.996 172.814L156.579 14.6853C157.398 6.99664 160.624 3.76742 168.687 3.35736L205.445 0.512574V0.563832ZM185.658 30.9339C183.226 30.9339 182.817 32.1384 182.433 33.753L175.573 101.285C175.163 103.309 175.982 104.514 178.388 104.514H198.994C201.016 104.514 201.835 104.104 201.835 102.079L192.953 33.3173C192.953 31.2927 192.134 30.0881 189.728 30.4982L185.684 30.9082L185.658 30.9339Z" fill="white"/>
<path id="Vector_3" d="M330.923 0.230658C369.294 -2.20407 382.22 15.6079 381.401 53.2052L377.766 193.958C377.357 225.097 365.633 244.498 330.104 245.728L283.645 247.343C270.309 248.137 264.652 240.064 264.242 227.916L260.607 20.8618C260.198 9.12383 265.471 3.86994 277.578 3.45988L330.923 0.230658ZM302.254 38.6225C299.029 38.6225 298.21 40.2371 298.21 42.2618L301.845 207.67C301.845 208.874 302.254 210.899 304.66 210.899L326.879 210.079C337.374 209.669 341.418 203.21 341.828 194.291L343.44 57.6134C343.85 46.2855 343.031 35.7777 326.06 36.5722L302.229 38.5969L302.254 38.6225Z" fill="white"/>
<path id="Vector_4" d="M435.463 17.6069C441.913 18.017 443.936 20.8361 443.936 27.3202L443.526 102.541C443.526 104.155 444.345 105.77 446.367 105.77H458.885C464.132 105.77 466.973 103.745 469.38 98.0811L487.963 9.50825C488.782 2.2297 493.62 -0.615089 500.096 0.615089L517.861 3.04982C523.928 3.84431 526.743 6.6891 525.131 13.9677L503.731 104.565C501.709 111.434 496.462 116.303 490.011 119.532C488.398 120.352 488.398 122.352 490.421 123.172C494.849 125.606 497.281 128.426 498.893 136.114C508.595 171.302 519.09 216.588 562.298 216.588H572.793C577.631 216.588 579.653 218.587 579.653 225.071L579.244 240.449C578.834 244.498 576.428 247.317 570.771 247.317H559.482C502.119 247.317 481.513 197.572 468.996 147.826C466.973 142.573 464.158 140.138 458.501 140.138H446.393C444.371 140.138 443.552 141.342 443.552 144.187L443.961 222.637C443.961 227.891 442.349 231.12 435.489 231.12L415.292 231.94C409.226 232.35 405.591 229.915 405.591 224.251V25.2699C405.591 18.7858 409.251 15.9667 415.292 16.3768L435.489 17.6326L435.463 17.6069Z" fill="white"/>
<path id="Vector_5" d="M234.933 202.057H144.062C139.608 202.057 137.202 206.209 137.202 212.18V237.194C137.202 242.55 138.021 247.317 144.062 247.317H204.19L219.191 266.154C220.266 267.615 222.569 267.154 223.005 265.36L227.177 247.317H234.959C241.025 247.317 242.638 242.55 242.638 237.194V212.18C242.638 206.824 241.025 202.057 234.959 202.057H234.933Z" fill="white"/>
<path id="Vector_6" d="M573.203 0.871376C579.269 1.28144 580.472 4.1006 580.472 10.1746V183.681C580.472 188.14 579.244 190.55 572.793 191.37L555.412 192.19C550.165 192.6 547.733 189.755 547.733 185.706V7.7655C547.733 0.897005 550.575 -0.333173 555.822 0.0768862L573.203 0.871376Z" fill="white"/>
</g>
<defs>
<clipPath id="clip0_0_4">
<rect width="580.472" height="267" fill="white"/>
</clipPath>
</defs>
</svg>
