<svg width="581" height="345" viewBox="0 0 581 345" fill="none" xmlns="http://www.w3.org/2000/svg">
<g clip-path="url(#clip0_50_64)">
<path d="M98.1404 0.205022C109.864 -0.205037 114.702 4.63879 114.702 15.9667L117.518 68.1468C117.927 73.8107 115.495 77.0399 109.838 77.0399H87.6199C82.3724 77.0399 80.7598 74.1951 80.7598 69.3513L80.3502 40.2371C80.3502 38.2124 79.5311 36.5978 76.7154 36.5978L44.3859 38.6225C41.5702 38.6225 40.7511 39.4426 40.3415 42.2618C38.3193 96.8509 36.7067 186.218 36.7067 206.055C36.7067 208.49 37.9097 210.514 40.7511 210.514H76.7154C79.9407 210.514 81.1693 208.9 81.1693 205.67L81.9885 146.212C81.9885 144.597 81.1693 142.573 78.7632 142.573H60.9986C58.1829 142.573 56.9542 141.752 56.9542 138.933L57.3638 118.302C57.3638 113.458 59.386 111.434 63.8399 111.434H106.255C114.728 111.434 118.362 115.867 118.362 123.556L117.159 227.891C117.159 240.833 111.912 247.317 98.5756 247.317H19.4028C6.47614 247.317 0 240.449 0 228.301L4.83791 22.8352C5.24747 7.04789 10.9045 3.40861 23.8312 3.02418L98.1404 0.205022Z" fill="white"/>
<path d="M205.445 0.563833C214.737 -0.256286 216.349 3.38299 217.578 10.2515L241.819 183.758C242.228 188.217 240.616 189.832 236.162 190.626L217.578 192.651C212.33 193.471 210.308 190.626 209.899 186.577L204.651 137.652C204.242 134.833 203.448 133.603 201.016 133.603H176.776C174.753 133.603 173.141 134.807 173.141 136.832L169.916 175.249C169.506 181.323 166.281 183.348 162.236 182.528L144.062 180.913C139.224 180.093 137.202 178.068 137.996 172.814L156.579 14.6853C157.398 6.99664 160.624 3.76742 168.687 3.35736L205.445 0.512575V0.563833ZM185.658 30.9339C183.226 30.9339 182.817 32.1384 182.433 33.753L175.573 101.285C175.163 103.309 175.982 104.514 178.388 104.514H198.994C201.016 104.514 201.835 104.104 201.835 102.079L192.953 33.3173C192.953 31.2927 192.134 30.0881 189.728 30.4982L185.684 30.9082L185.658 30.9339Z" fill="white"/>
<path d="M330.923 0.230644C369.294 -2.20408 382.22 15.6079 381.401 53.2052L377.766 193.958C377.357 225.097 365.633 244.498 330.104 245.728L283.645 247.343C270.309 248.137 264.652 240.064 264.242 227.916L260.607 20.8618C260.198 9.12381 265.471 3.86992 277.578 3.45986L330.923 0.230644ZM302.254 38.6225C299.029 38.6225 298.21 40.2371 298.21 42.2617L301.845 207.669C301.845 208.874 302.254 210.899 304.66 210.899L326.879 210.079C337.374 209.669 341.418 203.21 341.828 194.291L343.44 57.6133C343.85 46.2855 343.031 35.7777 326.06 36.5722L302.229 38.5968L302.254 38.6225Z" fill="white"/>
<path d="M435.463 17.6069C441.913 18.017 443.936 20.8361 443.936 27.3202L443.526 102.54C443.526 104.155 444.345 105.77 446.367 105.77H458.885C464.132 105.77 466.973 103.745 469.38 98.0811L487.963 9.50824C488.782 2.22969 493.62 -0.615101 500.096 0.615078L517.861 3.04981C523.928 3.8443 526.743 6.68908 525.131 13.9676L503.731 104.565C501.709 111.434 496.462 116.303 490.011 119.532C488.398 120.352 488.398 122.351 490.421 123.172C494.849 125.606 497.281 128.426 498.893 136.114C508.595 171.302 519.09 216.588 562.298 216.588H572.793C577.631 216.588 579.653 218.587 579.653 225.071L579.244 240.449C578.834 244.498 576.428 247.317 570.771 247.317H559.482C502.119 247.317 481.513 197.572 468.996 147.826C466.973 142.573 464.158 140.138 458.501 140.138H446.393C444.371 140.138 443.552 141.342 443.552 144.187L443.961 222.637C443.961 227.891 442.349 231.12 435.489 231.12L415.292 231.94C409.226 232.35 405.591 229.915 405.591 224.251V25.2699C405.591 18.7858 409.251 15.9667 415.292 16.3767L435.489 17.6325L435.463 17.6069Z" fill="white"/>
<path d="M234.933 202.057H144.062C139.608 202.057 137.202 206.209 137.202 212.18V237.194C137.202 242.55 138.021 247.317 144.062 247.317H204.19L219.191 266.154C220.266 267.615 222.569 267.154 223.005 265.36L227.177 247.317H234.959C241.025 247.317 242.638 242.55 242.638 237.194V212.18C242.638 206.824 241.025 202.057 234.959 202.057H234.933Z" fill="white"/>
<path d="M573.203 0.871387C579.269 1.28145 580.472 4.10061 580.472 10.1746V183.681C580.472 188.14 579.244 190.55 572.793 191.37L555.412 192.19C550.165 192.6 547.733 189.755 547.733 185.706V7.76551C547.733 0.897016 550.575 -0.333162 555.822 0.076897L573.203 0.871387Z" fill="white"/>
</g>
<path d="M15.7718 299.776L12.0318 300.04C11.6798 300.04 11.6358 300.216 11.6358 300.48L11.6798 310.116C11.6798 310.38 11.8118 310.6 12.2078 310.556L16.0798 309.588C16.6518 309.5 17.0038 309.148 17.0038 308.268V301.184C17.0038 300.348 16.7838 299.776 15.7718 299.776ZM9.17184 295.64L17.1798 295.244C19.6878 295.112 21.6678 296.256 21.6678 299.512V308.576C21.6678 311.216 20.8758 312.448 18.7198 313.152L12.7798 314.912C12.2078 315.132 12.0758 315.44 12.0758 315.924L12.1638 324.768C12.1638 325.56 11.9438 326 10.9318 326H8.37984C7.49984 326 7.10384 325.516 7.10384 324.68L7.05984 297.708C7.05984 296.476 7.67584 295.684 9.17184 295.64ZM24.0315 302.68L26.9355 302.812C27.5515 302.812 27.6395 303.076 27.6395 303.384V303.736C27.6395 304.044 27.8155 304.176 28.1675 304C29.7075 303.34 31.6435 302.724 33.2275 302.724H33.6675C34.1075 302.724 34.1515 302.9 34.1515 303.296V306.464C34.1515 307.08 33.8875 307.256 33.3595 307.212C31.9515 307.124 29.6195 307.08 28.1235 307.608C27.8155 307.784 27.6395 307.96 27.6395 308.268V325.296C27.6395 325.824 27.2435 326 26.8475 326L24.6915 325.956C24.0755 325.956 23.7675 325.824 23.7675 325.208L23.2395 303.604C23.2395 302.944 23.3715 302.636 24.0315 302.68ZM37.8155 302.988L45.4275 302.68C47.3635 302.636 48.1555 303.736 48.1115 305.54L47.7595 323.668C47.7595 325.076 47.0995 325.78 45.6475 325.868L37.6395 326C36.1875 326.044 35.6155 325.208 35.5715 323.844L35.0875 306.024C35.0875 304 35.8795 303.032 37.8155 302.988ZM43.0955 306.244L40.1915 306.376C39.4435 306.42 39.1795 306.728 39.2675 307.608L39.6195 321.776C39.6195 322.172 39.7075 322.392 40.1475 322.392L43.4475 322.348C43.7555 322.348 43.8435 322.216 43.8435 321.82L44.0195 307.3C44.0195 306.596 43.7995 306.244 43.0955 306.244ZM58.511 306.332L55.519 306.376C54.771 306.42 54.507 306.728 54.507 307.608L54.903 321.776C54.903 322.172 55.123 322.392 55.475 322.392L58.687 322.348C58.995 322.348 59.215 322.172 59.215 321.82L59.347 307.3C59.391 306.684 59.215 306.332 58.511 306.332ZM53.143 302.988L60.755 302.68C62.691 302.636 63.527 303.736 63.483 305.628L63.131 323.668C63.131 325.076 62.427 325.78 61.019 325.868L56.839 325.956C55.519 326 54.859 327.012 54.991 328.024C55.035 328.948 55.607 329.74 56.883 329.74L62.251 329.652C62.999 329.652 63.131 330.004 63.043 330.532L62.647 332.688C62.471 333.216 62.339 333.524 61.679 333.524H54.859C52.351 333.524 50.943 331.72 50.811 329.784C50.723 328.42 51.295 327.012 52.395 326C51.339 325.692 50.943 324.988 50.943 323.844L50.459 306.024C50.371 304 51.207 303.032 53.143 302.988ZM66.6224 302.68L69.5264 302.812C70.1424 302.812 70.2304 303.076 70.2304 303.384V303.736C70.2304 304.044 70.4064 304.176 70.7584 304C72.2984 303.34 74.2344 302.724 75.8184 302.724H76.2584C76.6984 302.724 76.7424 302.9 76.7424 303.296V306.464C76.7424 307.08 76.4784 307.256 75.9504 307.212C74.5424 307.124 72.2104 307.08 70.7144 307.608C70.4064 307.784 70.2304 307.96 70.2304 308.268V325.296C70.2304 325.824 69.8344 326 69.4384 326L67.2824 325.956C66.6664 325.956 66.3584 325.824 66.3584 325.208L65.8304 303.604C65.8304 302.944 65.9624 302.636 66.6224 302.68ZM85.6425 314.472H82.5625C81.8145 314.472 81.4625 314.912 81.4625 315.748L81.3305 321.116C81.3305 321.864 81.5065 322.436 82.4745 322.436H84.4985C85.5105 322.436 86.2145 321.732 86.2145 320.676L85.9945 315C85.9945 314.692 85.9505 314.472 85.6425 314.472ZM78.8225 302.988L85.9945 302.768C88.9865 302.724 89.7345 304.528 89.7785 306.948L90.2185 325.12C90.2185 325.692 90.0425 326 89.3385 326H86.9185C86.5225 326 86.3025 325.912 86.2585 325.428L86.2145 325.12C86.2145 324.9 85.9945 324.856 85.9065 325.076C85.4665 325.692 84.4105 326 83.2225 326H80.7585C78.1625 326 77.3705 324.152 77.4585 322.216L77.6785 314.208C77.6785 312.008 78.7345 310.864 81.3305 310.864H85.5105C85.8185 310.864 85.9505 310.644 85.9505 310.336L85.8625 308.18C85.8185 306.464 85.1585 306.376 84.2345 306.42L78.9545 306.816C78.5145 306.86 77.9865 306.684 78.0305 306.024L78.0745 303.824C78.0745 303.296 78.3825 302.988 78.8225 302.988ZM93.1084 302.68L96.0124 302.9C96.6284 302.9 96.7164 303.076 96.7164 303.428V303.736C96.7164 304.044 96.9364 304.264 97.3324 304.044L99.6204 303.208C100.412 302.9 101.116 302.68 101.82 302.68C103.184 302.68 104.24 303.296 104.856 304.352L107.804 303.252C108.64 302.9 109.432 302.768 110.092 302.768C112.424 302.768 113.964 304.396 113.92 307.564L113.26 325.296C113.26 325.824 112.996 326 112.468 326H109.872C109.3 326 108.992 325.824 109.036 325.208L109.52 309.368C109.652 308.004 109.08 307.124 107.936 307.124C107.672 307.124 107.408 307.124 107.1 307.212L105.692 307.608C105.296 307.74 105.164 307.96 105.164 308.356L104.944 323.184C104.944 323.668 104.592 323.844 104.108 323.844H101.82C101.336 323.844 100.984 323.712 100.984 323.052L100.808 308.312C100.808 307.432 100.28 307.124 99.6204 307.124C99.4004 307.124 99.0924 307.124 98.8724 307.212L97.0684 307.74C96.7164 307.784 96.7164 308.004 96.7164 308.312L97.1564 325.296C97.1564 325.824 96.8044 326 96.2764 326H93.9444C93.5044 326 93.1524 325.912 93.1524 325.296L92.3164 303.648C92.2284 302.944 92.4924 302.68 93.1084 302.68ZM125.648 304.88L128.464 304.572C129.036 304.528 129.388 304.792 129.388 305.408L130.488 321.864C130.488 322.348 130.752 322.524 131.192 322.48L131.5 322.436C131.94 322.348 131.984 322.084 132.116 321.688L132.688 311.128C132.688 310.292 133.084 309.94 133.92 309.94H135.46C136.428 309.94 136.56 310.292 136.692 311.26L137.484 321.82C137.528 322.304 137.748 322.436 138.188 322.392L138.496 322.348C138.936 322.216 138.98 321.996 139.068 321.644L140.08 303.384C140.124 302.9 140.344 302.636 140.96 302.68L143.908 302.9C144.436 302.9 144.656 303.252 144.524 303.824L142.94 324.108C142.808 325.12 142.368 325.604 141.356 325.692L137.528 325.956C136.472 326.044 136.032 325.604 135.856 324.592L135.064 317.244C135.02 316.936 134.888 316.936 134.756 316.936H134.712C134.58 316.936 134.448 316.98 134.404 317.244L133.92 324.416C133.788 325.208 133.304 325.78 132.336 325.868L128.684 326C127.408 326.176 126.924 325.516 126.792 324.504L124.856 305.804C124.812 305.188 125.032 304.968 125.648 304.88ZM146.821 302.68L155.929 302.988C156.721 303.032 156.897 303.384 156.897 303.956V306.112C156.897 306.684 156.809 307.124 156.545 307.74L149.857 321.996C149.725 322.216 149.725 322.48 150.121 322.436L156.017 322.392C156.589 322.348 156.853 322.48 156.853 323.14L156.897 325.12C156.897 325.648 156.721 325.868 156.193 325.912H146.689C145.941 325.956 145.765 325.516 145.765 324.988V322.568C145.765 322.128 145.809 321.644 146.161 321.028L152.805 306.772C152.937 306.552 152.849 306.332 152.541 306.332L146.601 306.156C146.117 306.156 145.765 306.024 145.809 305.32L145.941 303.472C145.985 302.724 146.161 302.68 146.821 302.68ZM159.192 302.68L162.096 302.9C162.712 302.9 162.8 303.076 162.8 303.428V303.736C162.8 304.044 163.02 304.264 163.416 304.044L165.704 303.208C166.496 302.9 167.2 302.68 167.904 302.68C169.268 302.68 170.324 303.296 170.94 304.352L173.888 303.252C174.724 302.9 175.516 302.768 176.176 302.768C178.508 302.768 180.048 304.396 180.004 307.564L179.344 325.296C179.344 325.824 179.08 326 178.552 326H175.956C175.384 326 175.076 325.824 175.12 325.208L175.604 309.368C175.736 308.004 175.164 307.124 174.02 307.124C173.756 307.124 173.492 307.124 173.184 307.212L171.776 307.608C171.38 307.74 171.248 307.96 171.248 308.356L171.028 323.184C171.028 323.668 170.676 323.844 170.192 323.844H167.904C167.42 323.844 167.068 323.712 167.068 323.052L166.892 308.312C166.892 307.432 166.364 307.124 165.704 307.124C165.484 307.124 165.176 307.124 164.956 307.212L163.152 307.74C162.8 307.784 162.8 308.004 162.8 308.312L163.24 325.296C163.24 325.824 162.888 326 162.36 326H160.028C159.588 326 159.236 325.912 159.236 325.296L158.4 303.648C158.312 302.944 158.576 302.68 159.192 302.68ZM190.203 314.472H187.123C186.375 314.472 186.023 314.912 186.023 315.748L185.891 321.116C185.891 321.864 186.067 322.436 187.035 322.436H189.059C190.071 322.436 190.775 321.732 190.775 320.676L190.555 315C190.555 314.692 190.511 314.472 190.203 314.472ZM183.383 302.988L190.555 302.768C193.547 302.724 194.295 304.528 194.339 306.948L194.779 325.12C194.779 325.692 194.603 326 193.899 326H191.479C191.083 326 190.863 325.912 190.819 325.428L190.775 325.12C190.775 324.9 190.555 324.856 190.467 325.076C190.027 325.692 188.971 326 187.783 326H185.319C182.723 326 181.931 324.152 182.019 322.216L182.239 314.208C182.239 312.008 183.295 310.864 185.891 310.864H190.071C190.379 310.864 190.511 310.644 190.511 310.336L190.423 308.18C190.379 306.464 189.719 306.376 188.795 306.42L183.515 306.816C183.075 306.86 182.547 306.684 182.591 306.024L182.635 303.824C182.635 303.296 182.943 302.988 183.383 302.988ZM199.473 302.988L206.953 302.68C208.757 302.592 209.637 303.648 209.637 305.32L209.769 310.996C209.769 311.48 209.461 311.744 209.065 311.744H206.425C205.897 311.744 205.765 311.392 205.765 311.04L205.677 306.904C205.677 306.464 205.545 306.244 205.061 306.244L201.805 306.288C201.497 306.288 201.365 306.552 201.365 306.86L201.145 321.424C201.145 322.128 201.409 322.48 202.113 322.48L204.929 322.304C205.633 322.216 205.897 321.952 205.897 321.116V317.64C205.897 317.156 206.205 316.892 206.689 316.892H209.021C209.681 316.892 209.945 317.2 209.945 317.86V323.052C209.945 324.944 209.109 325.868 207.393 325.912L199.561 326C197.889 326.044 196.965 324.944 197.053 323.272L197.449 305.1C197.449 303.648 198.021 303.032 199.473 302.988ZM212.828 302.68L215.732 302.812C216.348 302.812 216.436 303.032 216.436 303.384V303.692C216.436 304.044 216.656 304.132 217.008 304L219.692 303.252C220.44 302.944 221.232 302.768 221.936 302.768C224.268 302.768 225.852 304.396 225.72 307.564L225.148 325.252C225.148 325.78 224.928 326 224.312 326H221.716C221.188 326 220.836 325.912 220.88 325.164L221.452 309.456C221.496 307.96 221.012 307.124 219.868 307.124C219.604 307.124 219.384 307.168 219.076 307.256L216.788 307.74C216.48 307.74 216.436 307.96 216.436 308.268L216.48 323.052C216.48 323.58 216.128 323.844 215.6 323.844H213.312C212.828 323.844 212.476 323.756 212.476 323.052L212.08 303.56C212.08 302.9 212.256 302.636 212.828 302.68ZM228.985 302.68L231.141 302.768C231.889 302.9 232.109 303.252 232.065 303.956V324.9C232.065 325.516 231.889 325.824 231.229 325.868L228.809 326C228.281 326.044 227.929 325.692 227.929 325.252V303.648C227.929 302.9 228.325 302.592 228.985 302.68ZM229.293 295.728L231.053 295.816C231.933 295.86 232.197 296.388 232.153 297.224V298.544C232.153 299.556 231.801 299.996 230.965 299.996L229.073 300.04C228.237 300.128 227.841 299.688 227.841 298.94V297.18C227.841 296.124 228.193 295.728 229.293 295.728ZM242.537 314.472H239.457C238.709 314.472 238.357 314.912 238.357 315.748L238.225 321.116C238.225 321.864 238.401 322.436 239.369 322.436H241.393C242.405 322.436 243.109 321.732 243.109 320.676L242.889 315C242.889 314.692 242.845 314.472 242.537 314.472ZM235.717 302.988L242.889 302.768C245.881 302.724 246.629 304.528 246.673 306.948L247.113 325.12C247.113 325.692 246.937 326 246.233 326H243.813C243.417 326 243.197 325.912 243.153 325.428L243.109 325.12C243.109 324.9 242.889 324.856 242.801 325.076C242.361 325.692 241.305 326 240.117 326H237.653C235.057 326 234.265 324.152 234.353 322.216L234.573 314.208C234.573 312.008 235.629 310.864 238.225 310.864H242.405C242.713 310.864 242.845 310.644 242.845 310.336L242.757 308.18C242.713 306.464 242.053 306.376 241.129 306.42L235.849 306.816C235.409 306.86 234.881 306.684 234.925 306.024L234.969 303.824C234.969 303.296 235.277 302.988 235.717 302.988ZM250.091 302.68L252.995 302.812C253.611 302.812 253.699 303.032 253.699 303.384V303.692C253.699 304.044 253.919 304.132 254.271 304L256.955 303.252C257.703 302.944 258.495 302.768 259.199 302.768C261.531 302.768 263.115 304.396 262.983 307.564L262.411 325.252C262.411 325.78 262.191 326 261.575 326H258.979C258.451 326 258.099 325.912 258.143 325.164L258.715 309.456C258.759 307.96 258.275 307.124 257.131 307.124C256.867 307.124 256.647 307.168 256.339 307.256L254.051 307.74C253.743 307.74 253.699 307.96 253.699 308.268L253.743 323.052C253.743 323.58 253.391 323.844 252.863 323.844H250.575C250.091 323.844 249.739 323.756 249.739 323.052L249.343 303.56C249.343 302.9 249.519 302.636 250.091 302.68ZM266.248 302.68L268.404 302.768C269.152 302.9 269.372 303.252 269.328 303.956V324.9C269.328 325.516 269.152 325.824 268.492 325.868L266.072 326C265.544 326.044 265.192 325.692 265.192 325.252V303.648C265.192 302.9 265.588 302.592 266.248 302.68ZM266.556 295.728L268.316 295.816C269.196 295.86 269.46 296.388 269.416 297.224V298.544C269.416 299.556 269.064 299.996 268.228 299.996L266.336 300.04C265.5 300.128 265.104 299.688 265.104 298.94V297.18C265.104 296.124 265.456 295.728 266.556 295.728ZM279.8 314.472H276.72C275.972 314.472 275.62 314.912 275.62 315.748L275.488 321.116C275.488 321.864 275.664 322.436 276.632 322.436H278.656C279.668 322.436 280.372 321.732 280.372 320.676L280.152 315C280.152 314.692 280.108 314.472 279.8 314.472ZM272.98 302.988L280.152 302.768C283.144 302.724 283.892 304.528 283.936 306.948L284.376 325.12C284.376 325.692 284.2 326 283.496 326H281.076C280.68 326 280.46 325.912 280.416 325.428L280.372 325.12C280.372 324.9 280.152 324.856 280.064 325.076C279.624 325.692 278.568 326 277.38 326H274.916C272.32 326 271.528 324.152 271.616 322.216L271.836 314.208C271.836 312.008 272.892 310.864 275.488 310.864H279.668C279.976 310.864 280.108 310.644 280.108 310.336L280.02 308.18C279.976 306.464 279.316 306.376 278.392 306.42L273.112 306.816C272.672 306.86 272.144 306.684 272.188 306.024L272.232 303.824C272.232 303.296 272.54 302.988 272.98 302.988ZM303.138 306.332L300.674 306.596C300.322 306.684 300.234 306.772 300.234 307.036L300.322 320.5C300.322 321.512 300.762 322.392 301.994 322.436H303.05C304.458 322.436 304.81 321.512 304.854 320.28L305.25 308.576C305.294 307.036 304.81 306.156 303.138 306.332ZM296.626 295.244H299.354C300.014 295.244 300.234 295.508 300.234 296.124L300.278 302.548C300.278 303.032 300.454 303.208 300.938 303.076L304.59 302.768C308.11 302.372 309.694 304.616 309.606 308.136L309.122 320.72C309.034 324.02 308.022 326 304.458 326C303.842 326 303.006 325.912 302.522 325.692C301.686 325.692 300.982 325.252 300.718 325.076C300.454 324.856 300.366 324.988 300.366 325.164V325.428C300.366 325.868 300.146 326 299.75 326H297.11C296.582 326 296.318 325.824 296.274 325.296L295.702 296.124C295.702 295.42 296.098 295.244 296.626 295.244ZM319.507 306.376L317.395 306.508C316.295 306.596 315.943 307.168 315.943 308.268L315.811 313.9C315.811 314.208 315.943 314.384 316.295 314.384H319.243C320.167 314.384 320.607 314.164 320.607 313.108L320.783 307.74C320.783 306.772 320.607 306.332 319.507 306.376ZM315.459 303.076L320.915 302.724C323.951 302.548 324.655 304 324.567 306.332L324.303 314.428C324.215 316.628 323.027 317.86 320.563 317.86H316.339C316.031 317.86 315.811 318.124 315.811 318.344V320.016C315.811 321.38 316.383 321.952 317.791 322.04L323.379 322.216C324.259 322.304 324.391 322.876 324.303 323.404L323.995 324.988C323.907 325.648 323.555 326.132 322.675 326L315.283 325.472C312.643 325.296 311.631 323.888 311.719 320.984L311.983 306.772C312.071 304.616 313.127 303.252 315.459 303.076ZM327.013 302.68L336.121 302.988C336.913 303.032 337.089 303.384 337.089 303.956V306.112C337.089 306.684 337.001 307.124 336.737 307.74L330.049 321.996C329.917 322.216 329.917 322.48 330.313 322.436L336.209 322.392C336.781 322.348 337.045 322.48 337.045 323.14L337.089 325.12C337.089 325.648 336.913 325.868 336.385 325.912H326.881C326.133 325.956 325.957 325.516 325.957 324.988V322.568C325.957 322.128 326.001 321.644 326.353 321.028L332.997 306.772C333.129 306.552 333.041 306.332 332.733 306.332L326.793 306.156C326.309 306.156 325.957 306.024 326.001 305.32L326.133 303.472C326.177 302.724 326.353 302.68 327.013 302.68ZM346.424 306.332H345.016C343.784 306.332 343.3 307.388 343.3 308.224L343.08 321.82C343.08 322.04 343.168 322.216 343.476 322.216L345.72 322.436C347.172 322.568 347.7 321.864 347.744 320.588L348.14 308.268C348.14 307.124 347.744 306.332 346.424 306.332ZM340.088 302.68H342.596C343.036 302.68 343.256 302.812 343.256 303.252V303.516C343.256 303.824 343.52 303.824 343.74 303.648C344.928 302.768 346.292 302.68 347.788 302.68C351.132 302.68 352.32 304.704 352.32 307.476L351.88 321.116C351.792 324.768 350.12 326.484 346.776 326L343.74 325.692C343.124 325.604 343.036 326 343.036 326.264L342.948 332.6C342.948 333.172 342.772 333.524 342.156 333.524H339.384C338.724 333.524 338.504 333.172 338.504 332.6L339.296 303.472C339.296 302.944 339.56 302.68 340.088 302.68ZM355.544 302.68L357.7 302.768C358.448 302.9 358.668 303.252 358.624 303.956V324.9C358.624 325.516 358.448 325.824 357.788 325.868L355.368 326C354.84 326.044 354.488 325.692 354.488 325.252V303.648C354.488 302.9 354.884 302.592 355.544 302.68ZM355.852 295.728L357.612 295.816C358.492 295.86 358.756 296.388 358.712 297.224V298.544C358.712 299.556 358.36 299.996 357.524 299.996L355.632 300.04C354.796 300.128 354.4 299.688 354.4 298.94V297.18C354.4 296.124 354.752 295.728 355.852 295.728ZM368.66 306.376L366.548 306.508C365.448 306.596 365.096 307.168 365.096 308.268L364.964 313.9C364.964 314.208 365.096 314.384 365.448 314.384H368.396C369.32 314.384 369.76 314.164 369.76 313.108L369.936 307.74C369.936 306.772 369.76 306.332 368.66 306.376ZM364.612 303.076L370.068 302.724C373.104 302.548 373.808 304 373.72 306.332L373.456 314.428C373.368 316.628 372.18 317.86 369.716 317.86H365.492C365.184 317.86 364.964 318.124 364.964 318.344V320.016C364.964 321.38 365.536 321.952 366.944 322.04L372.532 322.216C373.412 322.304 373.544 322.876 373.456 323.404L373.148 324.988C373.06 325.648 372.708 326.132 371.828 326L364.436 325.472C361.796 325.296 360.784 323.888 360.872 320.984L361.136 306.772C361.224 304.616 362.28 303.252 364.612 303.076ZM378.279 302.988L385.759 302.68C387.563 302.592 388.443 303.648 388.443 305.32L388.575 310.996C388.575 311.48 388.267 311.744 387.871 311.744H385.231C384.703 311.744 384.571 311.392 384.571 311.04L384.483 306.904C384.483 306.464 384.351 306.244 383.867 306.244L380.611 306.288C380.303 306.288 380.171 306.552 380.171 306.86L379.951 321.424C379.951 322.128 380.215 322.48 380.919 322.48L383.735 322.304C384.439 322.216 384.703 321.952 384.703 321.116V317.64C384.703 317.156 385.011 316.892 385.495 316.892H387.827C388.487 316.892 388.751 317.2 388.751 317.86V323.052C388.751 324.944 387.915 325.868 386.199 325.912L378.367 326C376.695 326.044 375.771 324.944 375.859 323.272L376.255 305.1C376.255 303.648 376.827 303.032 378.279 302.988ZM391.238 302.68L400.346 302.988C401.138 303.032 401.314 303.384 401.314 303.956V306.112C401.314 306.684 401.226 307.124 400.962 307.74L394.274 321.996C394.142 322.216 394.142 322.48 394.538 322.436L400.434 322.392C401.006 322.348 401.27 322.48 401.27 323.14L401.314 325.12C401.314 325.648 401.138 325.868 400.61 325.912H391.106C390.358 325.956 390.182 325.516 390.182 324.988V322.568C390.182 322.128 390.226 321.644 390.578 321.028L397.222 306.772C397.354 306.552 397.266 306.332 396.958 306.332L391.018 306.156C390.534 306.156 390.182 306.024 390.226 305.32L390.358 303.472C390.402 302.724 390.578 302.68 391.238 302.68ZM410.693 306.376L408.581 306.508C407.481 306.596 407.129 307.168 407.129 308.268L406.997 313.9C406.997 314.208 407.129 314.384 407.481 314.384H410.429C411.353 314.384 411.793 314.164 411.793 313.108L411.969 307.74C411.969 306.772 411.793 306.332 410.693 306.376ZM406.645 303.076L412.101 302.724C415.137 302.548 415.841 304 415.753 306.332L415.489 314.428C415.401 316.628 414.213 317.86 411.749 317.86H407.525C407.217 317.86 406.997 318.124 406.997 318.344V320.016C406.997 321.38 407.569 321.952 408.977 322.04L414.565 322.216C415.445 322.304 415.577 322.876 415.489 323.404L415.181 324.988C415.093 325.648 414.741 326.132 413.861 326L406.469 325.472C403.829 325.296 402.817 323.888 402.905 320.984L403.169 306.772C403.257 304.616 404.313 303.252 406.645 303.076ZM418.596 302.68L421.5 302.856C422.116 302.856 422.204 303.032 422.204 303.384V303.692C422.204 304.044 422.424 304.132 422.776 304L425.46 303.252C426.252 302.944 427 302.768 427.704 302.768C430.036 302.768 431.62 304.396 431.488 307.564L430.916 325.252C430.916 325.78 430.696 326 430.08 326H427.484C426.956 326 426.604 325.912 426.648 325.164L427.22 309.456C427.264 307.96 426.78 307.124 425.636 307.124C425.372 307.124 425.152 307.168 424.844 307.256L422.556 307.74C422.248 307.74 422.204 307.96 422.204 308.268L422.248 323.052C422.248 323.58 421.896 323.844 421.412 323.844H419.08C418.64 323.844 418.288 323.756 418.244 323.052L417.848 303.56C417.848 302.9 418.024 302.636 418.596 302.68ZM424.976 293.88H427.66C428.056 293.88 428.276 294.232 428.012 294.584L423.612 301.052C423.524 301.272 423.26 301.404 423.128 301.404H421.632C421.28 301.404 421.104 301.14 421.28 300.7L424.36 294.276C424.536 294.012 424.668 293.88 424.976 293.88ZM435.759 302.944L444.207 302.768C445.791 302.724 446.275 303.472 446.275 305.012L446.319 309.588C446.319 310.072 446.231 310.336 445.571 310.38L443.019 310.512C442.579 310.512 442.359 310.336 442.359 309.808L442.315 306.904C442.315 306.596 442.183 306.332 441.743 306.332L438.355 306.464C438.047 306.464 437.959 306.684 437.959 306.904V310.556C437.959 311.084 438.091 311.48 438.707 311.788L444.515 313.768C445.879 314.34 446.407 315.22 446.407 316.628L446.451 322.392C446.495 324.284 446.099 325.692 443.811 325.78L436.067 326C434.527 326.044 433.779 325.208 433.779 323.756L433.735 319.268C433.735 318.696 433.911 318.52 434.571 318.432L437.079 318.256C437.695 318.212 437.783 318.564 437.827 319.048V321.468C437.827 322.128 438.091 322.436 438.751 322.436L441.435 322.304C442.183 322.216 442.359 321.952 442.359 321.16L442.315 318.344C442.271 317.508 441.963 317.156 441.259 316.848L435.319 314.648C434.175 314.164 433.823 313.372 433.823 312.36L433.779 305.232C433.735 303.912 434.307 302.944 435.759 302.944ZM448.413 302.68H449.249C449.601 302.68 449.777 302.592 449.865 302.284L451.273 298.368C451.581 297.796 451.625 297.664 452.197 297.532L453.12 297.356C453.825 297.224 454.001 297.532 454.001 298.06L453.957 302.328C453.957 302.636 454.177 302.68 454.353 302.68H457.697C458.093 302.68 458.181 302.9 458.181 303.252V305.76C458.181 306.068 458.093 306.332 457.697 306.332H454.397C454.045 306.332 453.913 306.42 453.913 306.772L453.869 319.664C453.869 321.028 454.133 322.084 455.717 322.172L457.301 322.216C458.049 322.216 458.137 322.524 458.137 323.052L457.917 325.164C457.829 325.912 457.433 326.044 456.641 326L454.265 325.868C450.701 325.56 449.689 323.448 449.733 320.148L449.821 306.728C449.821 306.42 449.689 306.332 449.381 306.332H448.413C448.061 306.332 447.841 306.112 447.841 305.76V303.252C447.841 302.9 448.061 302.68 448.413 302.68ZM459.844 304.88L462.66 304.572C463.232 304.528 463.584 304.792 463.584 305.408L464.684 321.864C464.684 322.348 464.948 322.524 465.388 322.48L465.696 322.436C466.136 322.348 466.18 322.084 466.312 321.688L466.884 311.128C466.884 310.292 467.28 309.94 468.116 309.94H469.656C470.624 309.94 470.756 310.292 470.888 311.26L471.68 321.82C471.724 322.304 471.944 322.436 472.384 322.392L472.692 322.348C473.132 322.216 473.176 321.996 473.264 321.644L474.276 303.384C474.32 302.9 474.54 302.636 475.156 302.68L478.104 302.9C478.632 302.9 478.852 303.252 478.72 303.824L477.136 324.108C477.004 325.12 476.564 325.604 475.552 325.692L471.724 325.956C470.668 326.044 470.228 325.604 470.052 324.592L469.26 317.244C469.216 316.936 469.084 316.936 468.952 316.936H468.908C468.776 316.936 468.644 316.98 468.6 317.244L468.116 324.416C467.984 325.208 467.5 325.78 466.532 325.868L462.88 326C461.604 326.176 461.12 325.516 460.988 324.504L459.052 305.804C459.008 305.188 459.228 304.968 459.844 304.88ZM488.63 314.472H485.55C484.802 314.472 484.45 314.912 484.45 315.748L484.318 321.116C484.318 321.864 484.494 322.436 485.462 322.436H487.486C488.498 322.436 489.202 321.732 489.202 320.676L488.982 315C488.982 314.692 488.938 314.472 488.63 314.472ZM481.81 302.988L488.982 302.768C491.974 302.724 492.722 304.528 492.766 306.948L493.206 325.12C493.206 325.692 493.03 326 492.326 326H489.906C489.51 326 489.29 325.912 489.246 325.428L489.202 325.12C489.202 324.9 488.982 324.856 488.894 325.076C488.454 325.692 487.398 326 486.21 326H483.746C481.15 326 480.358 324.152 480.446 322.216L480.666 314.208C480.666 312.008 481.722 310.864 484.318 310.864H488.498C488.806 310.864 488.938 310.644 488.938 310.336L488.85 308.18C488.806 306.464 488.146 306.376 487.222 306.42L481.942 306.816C481.502 306.86 480.974 306.684 481.018 306.024L481.062 303.824C481.062 303.296 481.37 302.988 481.81 302.988ZM509.987 302.768L513.111 303.12C513.771 303.252 513.815 302.812 513.815 302.548V296.124C513.815 295.508 514.079 295.244 514.651 295.244H517.423C518.083 295.244 518.435 295.508 518.391 296.124L517.555 325.296C517.555 325.824 517.247 326 516.807 326H514.123C513.727 326 513.551 325.868 513.551 325.428V325.208C513.551 324.944 513.331 324.856 513.067 325.076C512.847 325.34 512.143 325.692 511.263 325.692C510.823 325.912 509.547 326 508.975 326C505.631 326 504.443 324.064 504.531 321.248L504.971 307.652C505.059 304.044 506.731 302.328 509.987 302.768ZM513.287 306.508L511.131 306.288C509.767 306.2 509.107 306.86 509.107 308.18L508.711 320.324C508.667 321.556 509.107 322.436 510.471 322.436H511.835C512.979 322.392 513.463 321.424 513.551 320.5L513.727 307.036C513.727 306.728 513.595 306.552 513.287 306.508ZM520.815 302.68L529.923 302.988C530.715 303.032 530.891 303.384 530.891 303.956V306.112C530.891 306.684 530.803 307.124 530.539 307.74L523.851 321.996C523.719 322.216 523.719 322.48 524.115 322.436L530.011 322.392C530.583 322.348 530.847 322.48 530.847 323.14L530.891 325.12C530.891 325.648 530.715 325.868 530.187 325.912H520.683C519.935 325.956 519.759 325.516 519.759 324.988V322.568C519.759 322.128 519.803 321.644 520.155 321.028L526.799 306.772C526.931 306.552 526.843 306.332 526.535 306.332L520.595 306.156C520.111 306.156 519.759 306.024 519.803 305.32L519.935 303.472C519.979 302.724 520.155 302.68 520.815 302.68ZM533.802 302.68L535.958 302.768C536.706 302.9 536.926 303.252 536.882 303.956V324.9C536.882 325.516 536.706 325.824 536.046 325.868L533.626 326C533.098 326.044 532.746 325.692 532.746 325.252V303.648C532.746 302.9 533.142 302.592 533.802 302.68ZM534.11 295.728L535.87 295.816C536.75 295.86 537.014 296.388 536.97 297.224V298.544C536.97 299.556 536.618 299.996 535.782 299.996L533.89 300.04C533.054 300.128 532.658 299.688 532.658 298.94V297.18C532.658 296.124 533.01 295.728 534.11 295.728ZM546.919 306.376L544.807 306.508C543.707 306.596 543.355 307.168 543.355 308.268L543.223 313.9C543.223 314.208 543.355 314.384 543.707 314.384H546.655C547.579 314.384 548.019 314.164 548.019 313.108L548.195 307.74C548.195 306.772 548.019 306.332 546.919 306.376ZM542.871 303.076L548.327 302.724C551.363 302.548 552.067 304 551.979 306.332L551.715 314.428C551.627 316.628 550.439 317.86 547.975 317.86H543.751C543.443 317.86 543.223 318.124 543.223 318.344V320.016C543.223 321.38 543.795 321.952 545.203 322.04L550.791 322.216C551.671 322.304 551.803 322.876 551.715 323.404L551.407 324.988C551.319 325.648 550.967 326.132 550.087 326L542.695 325.472C540.055 325.296 539.043 323.888 539.131 320.984L539.395 306.772C539.483 304.616 540.539 303.252 542.871 303.076ZM556.538 302.988L564.018 302.68C565.822 302.592 566.702 303.648 566.702 305.32L566.834 310.996C566.834 311.48 566.526 311.744 566.13 311.744H563.49C562.962 311.744 562.83 311.392 562.83 311.04L562.742 306.904C562.742 306.464 562.61 306.244 562.126 306.244L558.87 306.288C558.562 306.288 558.43 306.552 558.43 306.86L558.21 321.424C558.21 322.128 558.474 322.48 559.178 322.48L561.994 322.304C562.698 322.216 562.962 321.952 562.962 321.116V317.64C562.962 317.156 563.27 316.892 563.754 316.892H566.086C566.746 316.892 567.01 317.2 567.01 317.86V323.052C567.01 324.944 566.174 325.868 564.458 325.912L556.626 326C554.954 326.044 554.03 324.944 554.118 323.272L554.514 305.1C554.514 303.648 555.086 303.032 556.538 302.988ZM570.421 302.68L572.577 302.768C573.325 302.9 573.545 303.252 573.501 303.956V324.9C573.501 325.516 573.325 325.824 572.665 325.868L570.245 326C569.717 326.044 569.365 325.692 569.365 325.252V303.648C569.365 302.9 569.761 302.592 570.421 302.68ZM570.729 295.728L572.489 295.816C573.369 295.86 573.633 296.388 573.589 297.224V298.544C573.589 299.556 573.237 299.996 572.401 299.996L570.509 300.04C569.673 300.128 569.277 299.688 569.277 298.94V297.18C569.277 296.124 569.629 295.728 570.729 295.728Z" fill="white"/>
<defs>
<clipPath id="clip0_50_64">
<rect width="580.472" height="267" fill="white"/>
</clipPath>
</defs>
</svg>