<svg width="1750" height="1177" viewBox="0 0 1750 1177" fill="none" xmlns="http://www.w3.org/2000/svg" preserveAspectRatio="xMinYMin slice">
<path id="Union" d="M1739.15 1117H1738.87V1148.39C1738.88 1148.39 1738.89 1148.39 1738.89 1148.39L1749.48 1150.16L1745.96 1171.35L1735.38 1169.58C1735.19 1169.55 1533.55 1136.01 1469.79 1136.01C1406.01 1136.01 1064.36 1167.32 1045.89 1167.32C1027.44 1167.32 898.963 1133.61 867.672 1133.61C836.379 1133.61 542.253 1175.51 506.106 1174.55C470.037 1173.56 285.555 1136.01 243.864 1136.01C202.174 1136.01 14.8018 1174.33 14.8018 1174.33L4.27832 1176.47L-0.000976562 1155.42L10.5234 1153.28C10.5234 1153.28 10.8858 1153.21 11.582 1153.07V1117H11.1514V0H1739.15V1117Z" fill="#E83F4B"/>
</svg>
