<svg preserveAspectRatio="none" width="100%" height="100%" overflow="visible" style="display: block;" viewBox="0 0 20 20" fill="none" xmlns="http://www.w3.org/2000/svg">
<g id="Instagram_logo_2016 1" clip-path="url(#clip0_0_38)">
<path id="Vector" d="M10.0048 0.151511C5.89255 0.151511 4.68986 0.155753 4.45608 0.175146C3.61216 0.245296 3.08703 0.37817 2.51492 0.66301C2.07403 0.881943 1.72631 1.13572 1.38314 1.49147C0.758159 2.14024 0.379382 2.9384 0.242265 3.88716C0.175601 4.34775 0.156207 4.44168 0.152268 6.79434C0.150753 7.57856 0.152268 8.61065 0.152268 9.995C0.152268 14.104 0.156813 15.3054 0.17651 15.5388C0.24469 16.36 0.373474 16.8766 0.646193 17.4417C1.16739 18.5235 2.16281 19.3356 3.33551 19.6386C3.74155 19.7432 4.19002 19.8008 4.76576 19.828C5.0097 19.8386 7.49598 19.8462 9.98379 19.8462C12.4716 19.8462 14.9594 19.8432 15.1973 19.8311C15.8639 19.7997 16.251 19.7477 16.679 19.6371C17.8593 19.3326 18.8366 18.5326 19.3684 17.4357C19.6358 16.8842 19.7714 16.3478 19.8327 15.5695C19.8461 15.3998 19.8517 12.6943 19.8517 9.99243C19.8517 7.29008 19.8456 4.58956 19.8323 4.41987C19.7702 3.62898 19.6346 3.09718 19.3585 2.53507C19.132 2.07494 18.8805 1.73131 18.5153 1.37996C17.8637 0.757553 17.0668 0.378776 16.1171 0.241811C15.657 0.175298 15.5653 0.155601 13.2108 0.151511H10.0048Z" fill="var(--fill-0, #E83F4B)"/>
<path id="Vector_2" d="M10.0048 0.151511C5.89255 0.151511 4.68986 0.155753 4.45608 0.175146C3.61216 0.245296 3.08703 0.37817 2.51492 0.66301C2.07403 0.881943 1.72631 1.13572 1.38314 1.49147C0.758159 2.14024 0.379382 2.9384 0.242265 3.88716C0.175601 4.34775 0.156207 4.44168 0.152268 6.79434C0.150753 7.57856 0.152268 8.61065 0.152268 9.995C0.152268 14.104 0.156813 15.3054 0.17651 15.5388C0.24469 16.36 0.373474 16.8766 0.646193 17.4417C1.16739 18.5235 2.16281 19.3356 3.33551 19.6386C3.74155 19.7432 4.19002 19.8008 4.76576 19.828C5.0097 19.8386 7.49598 19.8462 9.98379 19.8462C12.4716 19.8462 14.9594 19.8432 15.1973 19.8311C15.8639 19.7997 16.251 19.7477 16.679 19.6371C17.8593 19.3326 18.8366 18.5326 19.3684 17.4357C19.6358 16.8842 19.7714 16.3478 19.8327 15.5695C19.8461 15.3998 19.8517 12.6943 19.8517 9.99243C19.8517 7.29008 19.8456 4.58956 19.8323 4.41987C19.7702 3.62898 19.6346 3.09718 19.3585 2.53507C19.132 2.07494 18.8805 1.73131 18.5153 1.37996C17.8637 0.757553 17.0668 0.378776 16.1171 0.241811C15.657 0.175298 15.5653 0.155601 13.2108 0.151511H10.0048Z" fill="var(--fill-0, #E83F4B)"/>
<path id="Vector_3" d="M10.0003 2.72754C8.02519 2.72754 7.77732 2.73618 7.00159 2.77148C6.22737 2.80693 5.6989 2.9295 5.23649 3.10935C4.75817 3.2951 4.35243 3.54358 3.9482 3.94796C3.54366 4.35219 3.29519 4.75793 3.10883 5.2361C2.92853 5.69866 2.80581 6.22728 2.77096 7.0012C2.73626 7.77693 2.72717 8.02495 2.72717 10C2.72717 11.9751 2.73596 12.2223 2.77111 12.998C2.80672 13.7722 2.92929 14.3007 3.10898 14.7631C3.29488 15.2414 3.54336 15.6471 3.94774 16.0514C4.35182 16.4559 4.75757 16.705 5.23558 16.8907C5.69829 17.0706 6.22692 17.1932 7.00098 17.2286C7.77672 17.2639 8.02444 17.2726 9.99938 17.2726C11.9746 17.2726 12.2217 17.2639 12.9975 17.2286C13.7717 17.1932 14.3008 17.0706 14.7635 16.8907C15.2416 16.705 15.6468 16.4559 16.0509 16.0514C16.4554 15.6471 16.7039 15.2414 16.8902 14.7632C17.069 14.3007 17.1917 13.7721 17.2281 12.9981C17.2629 12.2224 17.272 11.9751 17.272 10C17.272 8.02495 17.2629 7.77708 17.2281 7.00135C17.1917 6.22713 17.069 5.69866 16.8902 5.23625C16.7039 4.75793 16.4554 4.35219 16.0509 3.94796C15.6463 3.54342 15.2418 3.29495 14.763 3.10935C14.2994 2.9295 13.7706 2.80693 12.9964 2.77148C12.2207 2.73618 11.9737 2.72754 9.99801 2.72754H10.0003ZM9.34788 4.03811C9.54151 4.0378 9.75757 4.03811 10.0003 4.03811C11.942 4.03811 12.1722 4.04508 12.939 4.07992C13.6481 4.11235 14.0329 4.23083 14.2892 4.33037C14.6286 4.46218 14.8706 4.61975 15.125 4.87429C15.3795 5.12883 15.5371 5.37125 15.6692 5.71063C15.7687 5.96668 15.8874 6.35152 15.9197 7.06059C15.9545 7.82723 15.9621 8.05753 15.9621 9.99838C15.9621 11.9392 15.9545 12.1695 15.9197 12.9362C15.8872 13.6452 15.7687 14.0301 15.6692 14.2861C15.5374 14.6255 15.3795 14.8672 15.125 15.1216C14.8704 15.3761 14.6288 15.5337 14.2892 15.6655C14.0332 15.7655 13.6481 15.8837 12.939 15.9161C12.1723 15.9509 11.942 15.9585 10.0003 15.9585C8.05837 15.9585 7.82823 15.9509 7.06159 15.9161C6.35252 15.8834 5.96768 15.7649 5.71117 15.6653C5.37179 15.5335 5.12937 15.3759 4.87483 15.1214C4.6203 14.8669 4.46273 14.6251 4.33061 14.2855C4.23107 14.0295 4.11243 13.6446 4.08016 12.9356C4.04531 12.1689 4.03835 11.9386 4.03835 9.99656C4.03835 8.0545 4.04531 7.82542 4.08016 7.05877C4.11259 6.3497 4.23107 5.96487 4.33061 5.70851C4.46242 5.36913 4.6203 5.12671 4.87483 4.87217C5.12937 4.61763 5.37179 4.46006 5.71117 4.32795C5.96753 4.22795 6.35252 4.10977 7.06159 4.0772C7.73248 4.04689 7.99247 4.0378 9.34788 4.03629V4.03811ZM13.8823 5.24564C13.4005 5.24564 13.0096 5.63609 13.0096 6.11804C13.0096 6.59985 13.4005 6.99074 13.8823 6.99074C14.3641 6.99074 14.755 6.59985 14.755 6.11804C14.755 5.63624 14.3641 5.24534 13.8823 5.24534V5.24564ZM10.0003 6.26531C7.93777 6.26531 6.26555 7.93753 6.26555 10C6.26555 12.0626 7.93777 13.734 10.0003 13.734C12.0628 13.734 13.7344 12.0626 13.7344 10C13.7344 7.93753 12.0628 6.26531 10.0003 6.26531ZM10.0003 7.57588C11.339 7.57588 12.4245 8.66115 12.4245 10C12.4245 11.3388 11.339 12.4242 10.0003 12.4242C8.66139 12.4242 7.57612 11.3388 7.57612 10C7.57612 8.66115 8.66139 7.57588 10.0003 7.57588Z" fill="var(--fill-0, white)"/>
</g>
<defs>
<clipPath id="clip0_0_38">
<rect width="20" height="19.9994" fill="white"/>
</clipPath>
</defs>
</svg>
