<svg preserveAspectRatio="none" width="100%" height="100%" overflow="visible" style="display: block;" viewBox="0 0 20 20" fill="none" xmlns="http://www.w3.org/2000/svg">
<g id="telegram-1 1" clip-path="url(#clip0_0_7)">
<path id="Vector" d="M10 20C15.5228 20 20 15.5228 20 10C20 4.47716 15.5228 0 10 0C4.47716 0 0 4.47716 0 10C0 15.5228 4.47716 20 10 20Z" fill="var(--fill-0, #E83F4B)"/>
<path id="Vector_2" d="M4.16185 9.91373C4.16185 9.91373 9.16185 7.86173 10.8959 7.13917C11.5607 6.85017 13.815 5.92529 13.815 5.92529C13.815 5.92529 14.8555 5.52069 14.7688 6.50333C14.7398 6.90797 14.5086 8.32413 14.2774 9.85593C13.9306 12.0236 13.5549 14.3935 13.5549 14.3935C13.5549 14.3935 13.4971 15.0582 13.0058 15.1738C12.5144 15.2894 11.7052 14.7692 11.5607 14.6536C11.445 14.5669 9.39305 13.2663 8.64161 12.6305C8.43929 12.4571 8.20809 12.1103 8.67049 11.7056C9.71097 10.7519 10.9537 9.56693 11.7052 8.81549C12.052 8.46865 12.3988 7.65941 10.9537 8.64205C8.90173 10.0582 6.87861 11.3877 6.87861 11.3877C6.87861 11.3877 6.41617 11.6767 5.54913 11.4166C4.68205 11.1565 3.67049 10.8097 3.67049 10.8097C3.67049 10.8097 2.97689 10.3762 4.16185 9.91373Z" fill="var(--fill-0, white)"/>
</g>
<defs>
<clipPath id="clip0_0_7">
<rect width="20" height="20" fill="white"/>
</clipPath>
</defs>
</svg>
