<svg preserveAspectRatio="none" width="100%" height="100%" overflow="visible" style="display: block;" viewBox="0 0 20 14" fill="none" xmlns="http://www.w3.org/2000/svg">
<g id="Group">
<path id="Vector" d="M19.5819 2.18638C19.3514 1.32533 18.6747 0.648669 17.8137 0.418177C16.2546 1.25176e-07 10 0 10 0C10 0 3.74548 1.25176e-07 2.18637 0.418177C1.32533 0.648669 0.648669 1.32533 0.418177 2.18638C1.25176e-07 3.74548 0 7.00035 0 7.00035C0 7.00035 1.25176e-07 10.2552 0.418177 11.8144C0.648669 12.6754 1.32533 13.352 2.18637 13.5825C3.74548 14.0007 10 14.0007 10 14.0007C10 14.0007 16.2546 14.0007 17.8137 13.5825C18.6747 13.352 19.3514 12.6754 19.5819 11.8144C20.0001 10.2552 20.0001 7.00035 20.0001 7.00035C20.0001 7.00035 19.9984 3.74548 19.5819 2.18638Z" fill="var(--fill-0, #E83F4B)"/>
<path id="Vector_2" d="M7.99811 10.0003L13.194 7.00063L7.99811 4.00093V10.0003Z" fill="var(--fill-0, white)"/>
</g>
</svg>
