<svg preserveAspectRatio="none" width="100%" height="100%" overflow="visible" style="display: block;" viewBox="0 0 20 21" fill="none" xmlns="http://www.w3.org/2000/svg">
<g id="Spotify_icon 1">
<path id="Vector" d="M10 3.57628e-07C4.47984 3.57628e-07 0 4.47984 0 10C0 15.5202 4.47984 20 10 20C15.5202 20 20 15.5202 20 10C20 4.47984 15.5202 3.57628e-07 10 3.57628e-07Z" fill="var(--fill-0, #E83F4B)"/>
<path id="Vector_2" d="M16.3952 9.31826C16.1855 9.31826 16.0565 9.26585 15.875 9.16101C13.0041 7.4473 7.871 7.03601 4.54842 7.96343C4.40326 8.00375 4.22181 8.06827 4.02826 8.06827C3.496 8.06827 3.08875 7.65294 3.08875 7.11665C3.08875 6.56826 3.42745 6.25778 3.79036 6.15294C5.20971 5.73762 6.79842 5.54004 8.52826 5.54004C11.4718 5.54004 14.5565 6.15294 16.8105 7.46746C17.125 7.64891 17.3307 7.89891 17.3307 8.37875C17.3307 8.92714 16.8871 9.31826 16.3952 9.31826ZM15.1452 12.3908C14.9355 12.3908 14.7944 12.2981 14.6492 12.2215C12.1291 10.7296 8.371 10.1287 5.02826 11.036C4.83471 11.0884 4.72987 11.1408 4.54842 11.1408C4.11697 11.1408 3.76616 10.79 3.76616 10.3586C3.76616 9.92714 3.97584 9.64085 4.39116 9.52391C5.51213 9.20939 6.65729 8.97552 8.33471 8.97552C10.9516 8.97552 13.4799 9.62472 15.4718 10.8102C15.7984 11.0037 15.9275 11.2537 15.9275 11.6046C15.9234 12.04 15.5847 12.3908 15.1452 12.3908ZM14.0605 15.036C13.8912 15.036 13.7863 14.9836 13.6291 14.8908C11.1129 13.3747 8.18552 13.3102 5.29439 13.9029C5.13713 13.9433 4.93149 14.0078 4.81455 14.0078C4.42342 14.0078 4.17745 13.6973 4.17745 13.3707C4.17745 12.9554 4.42342 12.7578 4.72584 12.6933C8.02826 11.9634 11.4033 12.0279 14.2823 13.7497C14.5283 13.907 14.6734 14.0481 14.6734 14.415C14.6734 14.782 14.3871 15.036 14.0605 15.036Z" fill="var(--fill-0, white)"/>
</g>
</svg>
