<svg preserveAspectRatio="none" width="100%" height="100%" overflow="visible" style="display: block;" viewBox="0 0 20 20" fill="none" xmlns="http://www.w3.org/2000/svg">
<g id="g27">
<path id="path29" d="M20 9.92676C20 15.4496 15.5228 19.9268 10 19.9268C4.47716 19.9268 0 15.4496 0 9.92676C0 5.23696 3.2286 1.30188 7.58424 0.22124V6.87092H5.52216V9.92676H7.58424V11.2435C7.58424 14.6472 9.12456 16.2248 12.4662 16.2248C13.0997 16.2248 14.1928 16.1006 14.64 15.9764V13.2062C14.404 13.231 13.9941 13.2435 13.4848 13.2435C11.845 13.2435 11.2115 12.6224 11.2115 11.0075V9.92676H14.4778L13.9167 6.87092H11.2115V0C16.1629 0.59804 20 4.81404 20 9.92676Z" fill="var(--fill-0, #E83F4B)"/>
</g>
</svg>
