<svg preserveAspectRatio="none" width="100%" height="100%" overflow="visible" style="display: block;" viewBox="0 0 691 2204" fill="none" xmlns="http://www.w3.org/2000/svg">
<path id="tlo" d="M234.052 27.7734C242.707 27.158 378.545 17.4102 385.154 17.4102C386.938 17.41 390.136 16.0205 393.772 14.2549C403.355 9.62646 415.494 1.91309 415.524 1.89355L416.494 1.27832L568.982 21.0781L644 1.76562V448.521L575.31 430.368L530.253 452.725L476 440.199V1753.9L615.982 1772.08L691 1752.77V2199.52L622.31 2181.37L577.253 2203.72L456.948 2175.95C448.293 2176.57 312.455 2186.31 305.846 2186.31C304.062 2186.31 300.864 2187.7 297.228 2189.47C287.633 2194.1 275.476 2201.83 275.476 2201.83L274.506 2202.45L122.018 2182.65L47 2201.96V1755.2L56 1757.58V436.542L0 450.959V4.20312L68.6904 22.3564L113.747 0L234.052 27.7734Z" fill="var(--fill-0, #E83F4B)"/>
</svg>
