<svg preserveAspectRatio="none" width="100%" height="100%" overflow="visible" style="display: block;" viewBox="0 0 330 152" fill="none" xmlns="http://www.w3.org/2000/svg">
<g id="Warstwa_1" clip-path="url(#clip0_0_11)">
<path id="Vector" d="M55.7931 0.116721C62.458 -0.116721 65.2084 2.64081 65.2084 9.08965L66.8091 38.7952C67.0419 42.0196 65.6595 43.8579 62.4434 43.8579H49.8121C46.8289 43.8579 45.9122 42.2384 45.9122 39.4809L45.6793 22.9065C45.6793 21.7539 45.2136 20.8347 43.6129 20.8347L25.2335 21.9873C23.6328 21.9873 23.1671 22.4542 22.9342 24.0591C21.7846 55.1361 20.8678 106.012 20.8678 117.305C20.8678 118.691 21.5518 119.843 23.1671 119.843H43.6129C45.4465 119.843 46.145 118.924 46.145 117.086L46.6107 83.2367C46.6107 82.3175 46.145 81.1649 44.7771 81.1649H34.6779C33.0771 81.1649 32.3786 80.698 32.3786 79.0931L32.6115 67.348C32.6115 64.5905 33.7611 63.4379 36.2932 63.4379H60.4061C65.2229 63.4379 67.2893 65.962 67.2893 70.339L66.6054 129.735C66.6054 137.103 63.6222 140.795 56.0405 140.795H11.0306C3.6817 140.795 0 136.885 0 129.969L2.75036 12.9998C2.9832 4.01229 6.19923 1.94049 13.5481 1.72164L55.7931 0.116721Z" fill="var(--fill-0, white)"/>
<path id="Vector_2" d="M116.796 0.320983C122.078 -0.145901 122.995 1.9259 123.694 5.83605L137.475 104.611C137.707 107.15 136.791 108.069 134.259 108.521L123.694 109.674C120.71 110.141 119.561 108.521 119.328 106.216L116.345 78.3636C116.112 76.7587 115.661 76.0584 114.278 76.0584H100.497C99.3478 76.0584 98.431 76.7441 98.431 77.8967L96.5974 99.7673C96.3646 103.225 94.531 104.378 92.2318 103.911L81.8997 102.992C79.1494 102.525 77.9997 101.372 78.4509 98.3813L89.0158 8.36015C89.4814 3.98311 91.315 2.14475 95.8989 1.91131L116.796 0.291803V0.320983ZM105.547 17.6103C104.165 17.6103 103.932 18.296 103.713 19.2152L99.8135 57.6602C99.5806 58.8128 100.046 59.4986 101.414 59.4986H113.129C114.278 59.4986 114.744 59.2651 114.744 58.1125L109.694 18.9672C109.694 17.8146 109.229 17.1288 107.861 17.3623L105.562 17.5957L105.547 17.6103Z" fill="var(--fill-0, white)"/>
<path id="Vector_3" d="M188.131 0.131292C209.945 -1.25477 217.294 8.88537 216.828 30.2891L214.761 110.418C214.529 128.145 207.864 139.19 187.665 139.89L161.253 140.809C153.671 141.262 150.455 136.666 150.223 129.75L148.156 11.8763C147.923 5.19407 150.921 2.20309 157.804 1.96965L188.131 0.131292ZM171.833 21.9873C169.999 21.9873 169.533 22.9065 169.533 24.0591L171.6 118.224C171.6 118.91 171.833 120.062 173.2 120.062L185.832 119.595C191.798 119.362 194.097 115.685 194.33 110.608L195.247 32.7986C195.48 26.3498 195.014 20.3678 185.366 20.8201L171.818 21.9727L171.833 21.9873Z" fill="var(--fill-0, white)"/>
<path id="Vector_4" d="M247.562 10.0234C251.229 10.2569 252.378 11.8618 252.378 15.5531L252.145 58.3751C252.145 59.2943 252.611 60.2135 253.761 60.2135H260.877C263.86 60.2135 265.475 59.0609 266.843 55.8365L277.408 5.41297C277.874 1.26937 280.624 -0.350136 284.306 0.350191L294.405 1.73625C297.854 2.18855 299.455 3.80805 298.538 7.95165L286.372 59.5278C285.223 63.4379 282.239 66.21 278.572 68.0484C277.655 68.5153 277.655 69.6533 278.805 70.1202C281.323 71.5063 282.705 73.1112 283.622 77.4882C289.137 97.5205 295.104 123.301 319.668 123.301H325.634C328.384 123.301 329.534 124.439 329.534 128.131L329.301 136.885C329.068 139.19 327.7 140.795 324.484 140.795H318.067C285.455 140.795 273.741 112.475 266.625 84.1559C265.475 81.1649 263.875 79.7789 260.658 79.7789H253.775C252.626 79.7789 252.16 80.4646 252.16 82.0841L252.393 126.745C252.393 129.735 251.476 131.574 247.576 131.574L236.094 132.041C232.646 132.274 230.579 130.888 230.579 127.664V14.3859C230.579 10.6946 232.66 9.08968 236.094 9.32312L247.576 10.038L247.562 10.0234Z" fill="var(--fill-0, white)"/>
<path id="Vector_5" d="M133.56 115.029H81.9C79.3679 115.029 78 117.392 78 120.792V135.032C78 138.081 78.4657 140.795 81.9 140.795H116.083L124.611 151.518C125.222 152.35 126.532 152.088 126.779 151.066L129.151 140.795H133.575C137.024 140.795 137.94 138.081 137.94 135.032V120.792C137.94 117.742 137.024 115.029 133.575 115.029H133.56Z" fill="var(--fill-0, white)"/>
<path id="Vector_6" d="M325.867 0.496065C329.316 0.729507 330 2.33442 330 5.79228V104.567C330 107.106 329.302 108.478 325.634 108.945L315.753 109.411C312.77 109.645 311.388 108.025 311.388 105.72V4.42081C311.388 0.510655 313.003 -0.189672 315.986 0.0437704L325.867 0.496065Z" fill="var(--fill-0, white)"/>
</g>
<defs>
<clipPath id="clip0_0_11">
<rect width="330" height="152" fill="white"/>
</clipPath>
</defs>
</svg>
