<svg preserveAspectRatio="none" width="100%" height="100%" overflow="visible" style="display: block;" viewBox="0 0 1187 798" fill="none" xmlns="http://www.w3.org/2000/svg">
<path id="Union" d="M1179.67 757.663H1179.48V778.954C1179.49 778.955 1179.49 778.957 1179.49 778.957L1186.67 780.154L1184.29 794.526L1177.11 793.33C1176.85 793.287 1040.19 770.559 996.963 770.559C953.697 770.559 721.95 791.794 709.432 791.794C696.911 791.793 609.769 768.928 588.544 768.928C567.318 768.928 367.812 797.354 343.293 796.697C318.826 796.03 193.693 770.559 165.414 770.559C137.135 770.559 10.04 796.55 10.04 796.55L2.90234 798L0 783.724L7.13867 782.272C7.14626 782.271 7.39181 782.222 7.85645 782.128V757.663H7.56445V0H1179.67V757.663Z" fill="var(--fill-0, #E83F4B)"/>
</svg>
