<svg preserveAspectRatio="none" width="100%" height="100%" overflow="visible" style="display: block;" viewBox="0 0 1354 1057" fill="none" xmlns="http://www.w3.org/2000/svg">
<path id="Union" d="M671.342 0C675.94 7.72017e-05 682.72 1.33418 690.914 4.02734C706.223 9.13176 727.928 19.0064 748.991 28.9844C769.181 38.5264 788.755 48.0942 801.084 52.9678C803.781 54.045 807.196 55.0713 808.096 55.3535C827.617 54.1992 1081.22 3.95031 1131.36 3.9502C1181.47 3.9502 1340.04 60.0781 1340.24 60.1504L1353.21 64.7676V718.779H1353.21V983.101L1340.6 988.59C1340.6 988.59 1269.09 1019.86 1215.2 1038.66C1190.33 1047.28 1168.83 1053.05 1158.46 1053.05C1144.95 1053.05 1112.81 1043.07 1077.39 1030.45C1028.72 1013.06 973.156 990.642 957.102 989.744C946.519 989.154 905.857 999.825 859.262 1012.29C784.9 1032.14 696.512 1057 681.871 1057C677.273 1057 670.492 1055.67 662.299 1052.97C646.99 1047.87 625.285 1037.99 604.222 1028.01C584.032 1018.47 564.458 1008.91 552.129 1004.03C549.432 1002.96 546.017 1001.93 545.117 1001.65C525.596 1002.8 271.994 1053.05 221.854 1053.05C171.751 1053.05 13.2096 996.934 12.9717 996.85L0 992.232V659.341H0.000976562V73.8984L12.6133 68.4092C12.7519 68.3486 84.1769 37.1234 138.015 18.3398C162.879 9.72134 184.379 3.9502 194.756 3.9502C208.267 3.95032 240.401 13.9279 275.822 26.5479C324.498 43.9388 380.057 66.357 396.111 67.2549C406.694 67.8448 447.356 57.1751 493.951 44.709C568.313 24.8555 656.701 0 671.342 0Z" fill="var(--fill-0, #F6F5F1)"/>
</svg>
